<svg xmlns="http://www.w3.org/2000/svg" xmlns:xlink="http://www.w3.org/1999/xlink" width="500" zoomAndPan="magnify" viewBox="0 0 375 374.999991" height="500" preserveAspectRatio="xMidYMid meet" version="1.2"><defs><clipPath id="9b4f8206ee"><path d="M 103.257812 83.359375 L 242.757812 83.359375 L 242.757812 216.859375 L 103.257812 216.859375 Z M 103.257812 83.359375 "/></clipPath><clipPath id="73459c8188"><path d="M 140.171875 90.609375 C 143.28125 90.609375 145.800781 93.128906 145.800781 96.234375 C 145.800781 99.34375 143.28125 101.859375 140.171875 101.859375 C 137.058594 101.859375 134.539062 99.34375 134.539062 96.234375 C 134.539062 93.128906 137.058594 90.609375 140.171875 90.609375 Z M 144.425781 118.605469 C 147.148438 118.605469 149.359375 120.8125 149.359375 123.535156 C 149.359375 126.253906 147.148438 128.460938 144.425781 128.460938 C 141.703125 128.460938 139.496094 126.253906 139.496094 123.535156 C 139.496094 120.8125 141.703125 118.605469 144.425781 118.605469 Z M 110.644531 108.535156 C 114.722656 108.535156 118.03125 111.839844 118.03125 115.914062 C 118.03125 119.992188 114.722656 123.296875 110.644531 123.296875 C 106.5625 123.296875 103.257812 119.992188 103.257812 115.914062 C 103.257812 111.839844 106.5625 108.535156 110.644531 108.535156 Z M 164.0625 166.484375 C 161.316406 166.484375 159.085938 168.707031 159.085938 171.457031 C 159.085938 174.203125 161.316406 176.429688 164.0625 176.429688 C 166.8125 176.429688 169.042969 174.203125 169.042969 171.457031 C 169.042969 168.707031 166.8125 166.484375 164.0625 166.484375 Z M 134.429688 146.90625 C 138.320312 146.90625 141.46875 150.054688 141.46875 153.941406 C 141.46875 157.824219 138.320312 160.976562 134.429688 160.976562 C 130.539062 160.976562 127.390625 157.824219 127.390625 153.941406 C 127.390625 150.054688 130.539062 146.90625 134.429688 146.90625 Z M 204.453125 107.171875 C 202.328125 107.738281 200.039062 108.535156 197.667969 109.539062 C 197.808594 110.089844 197.882812 110.667969 197.882812 111.261719 C 197.882812 111.484375 197.871094 111.703125 197.851562 111.921875 C 198.070312 112 198.285156 112.082031 198.5 112.160156 C 199.265625 112.453125 200.023438 112.757812 200.769531 113.074219 C 209.871094 116.914062 217.488281 122.558594 222.628906 128.949219 C 221.84375 125.765625 220.636719 122.679688 219.058594 119.734375 C 216.925781 115.765625 214.109375 112.046875 210.707031 108.675781 C 210.011719 109.105469 209.199219 109.355469 208.320312 109.355469 C 206.683594 109.355469 205.246094 108.480469 204.453125 107.171875 Z M 179.382812 92.164062 C 183.132812 95.457031 186.457031 99.601562 189.242188 104.410156 C 189.757812 104.292969 190.292969 104.230469 190.839844 104.230469 C 193.097656 104.230469 195.105469 105.289062 196.394531 106.9375 C 198.988281 105.828125 201.5 104.957031 203.835938 104.34375 C 203.882812 103.917969 203.988281 103.507812 204.144531 103.128906 C 203.378906 102.574219 202.597656 102.035156 201.792969 101.511719 C 195.472656 97.382812 188.042969 94.195312 179.835938 92.269531 Z M 184.929688 170.359375 C 186.085938 168.457031 187.171875 166.515625 188.175781 164.542969 C 188.632812 163.644531 189.070312 162.742188 189.492188 161.832031 C 191.660156 157.15625 193.339844 152.351562 194.363281 147.582031 C 191.976562 146.507812 190.3125 144.109375 190.3125 141.320312 C 190.3125 138.144531 192.46875 135.472656 195.402344 134.691406 C 195.367188 134.226562 195.328125 133.757812 195.277344 133.296875 C 194.878906 129.535156 194.226562 125.902344 193.347656 122.433594 C 193.265625 122.117188 193.183594 121.800781 193.101562 121.488281 C 192.800781 120.367188 192.476562 119.261719 192.128906 118.179688 C 191.710938 118.257812 191.28125 118.296875 190.839844 118.296875 C 188.828125 118.296875 187.015625 117.457031 185.734375 116.105469 C 185.441406 116.304688 185.148438 116.507812 184.855469 116.710938 C 184.484375 116.976562 184.113281 117.242188 183.742188 117.511719 C 178.9375 121.035156 174.417969 125.285156 170.804688 130.128906 C 172.066406 131.378906 172.851562 133.117188 172.851562 135.03125 C 172.851562 137.734375 171.296875 140.074219 169.035156 141.207031 L 169.058594 141.28125 C 172.101562 150.644531 177.882812 161.085938 184.929688 170.359375 Z M 218.402344 157.019531 C 218.75 156.464844 219.085938 155.902344 219.417969 155.339844 C 221.527344 151.0625 222.820312 146.785156 223.378906 142.589844 C 223.601562 140.910156 223.707031 139.242188 223.699219 137.585938 C 223.695312 136.914062 223.675781 136.246094 223.636719 135.582031 C 223.355469 135.078125 223.054688 134.578125 222.742188 134.082031 C 218.089844 126.714844 209.871094 120.054688 199.644531 115.738281 C 198.777344 115.371094 197.890625 115.023438 196.992188 114.6875 C 196.460938 115.636719 195.714844 116.453125 194.820312 117.066406 C 195.433594 118.960938 195.980469 120.910156 196.453125 122.910156 C 196.953125 125.039062 197.375 127.21875 197.710938 129.445312 C 197.886719 130.613281 198.035156 131.796875 198.164062 132.988281 C 198.21875 133.507812 198.261719 134.027344 198.300781 134.550781 C 201.558594 135.085938 204.046875 137.914062 204.046875 141.320312 C 204.046875 142.335938 203.828125 143.296875 203.433594 144.160156 C 205.71875 146.121094 208 148.398438 210.238281 150.921875 C 211.324219 152.148438 212.402344 153.433594 213.464844 154.769531 C 214.066406 155.523438 214.65625 156.289062 215.246094 157.070312 C 215.765625 156.890625 216.324219 156.792969 216.90625 156.792969 C 217.429688 156.792969 217.929688 156.871094 218.402344 157.019531 Z M 189.78125 180.660156 C 189.074219 179.894531 188.371094 179.113281 187.675781 178.320312 C 186.894531 177.421875 186.117188 176.503906 185.355469 175.570312 L 185.183594 175.359375 C 184.921875 175.75 184.65625 176.136719 184.390625 176.523438 C 180.21875 182.582031 175.417969 188.09375 170.4375 192.648438 C 176.644531 191.03125 183.128906 188.34375 189.429688 184.691406 C 189.253906 184.183594 189.160156 183.636719 189.160156 183.070312 C 189.160156 182.195312 189.386719 181.375 189.78125 180.660156 Z M 212.890625 158.769531 C 211.347656 156.71875 209.769531 154.777344 208.171875 152.964844 C 206.035156 150.542969 203.867188 148.359375 201.699219 146.488281 C 200.496094 147.539062 198.921875 148.175781 197.203125 148.183594 C 196.042969 153.574219 194.097656 158.984375 191.578125 164.207031 C 191.3125 164.757812 191.042969 165.304688 190.765625 165.847656 C 189.5625 168.210938 188.246094 170.535156 186.835938 172.796875 C 187.027344 173.039062 187.222656 173.28125 187.421875 173.519531 C 188.21875 174.503906 189.035156 175.46875 189.859375 176.414062 C 190.519531 177.171875 191.191406 177.914062 191.863281 178.644531 C 192.546875 178.292969 193.316406 178.097656 194.136719 178.097656 C 195.429688 178.097656 196.609375 178.589844 197.492188 179.398438 C 198.980469 178.296875 200.445312 177.140625 201.882812 175.929688 C 203.554688 174.519531 205.1875 173.035156 206.769531 171.480469 C 208.882812 169.394531 210.90625 167.179688 212.804688 164.847656 C 212.191406 164.011719 211.832031 162.980469 211.832031 161.863281 C 211.832031 160.699219 212.226562 159.625 212.890625 158.765625 Z M 208.527344 195.742188 C 204.566406 193.683594 200.554688 190.8125 196.636719 187.371094 C 195.902344 187.796875 195.050781 188.042969 194.136719 188.042969 C 193.011719 188.042969 191.976562 187.671875 191.144531 187.042969 C 184.449219 190.949219 177.542969 193.8125 170.9375 195.511719 C 170.921875 195.886719 170.867188 196.257812 170.78125 196.613281 L 190.519531 207.109375 C 190.578125 207.050781 190.636719 206.988281 190.695312 206.929688 L 190.699219 206.925781 C 191.753906 205.875 193.203125 205.222656 194.800781 205.222656 C 195.101562 205.222656 195.398438 205.246094 195.6875 205.292969 C 199.328125 199.011719 204.816406 196.636719 208.527344 195.742188 Z M 229.078125 187.386719 C 228.25 185.371094 227.359375 183.34375 226.40625 181.328125 C 224.433594 177.144531 222.203125 172.992188 219.800781 169.019531 C 219.332031 168.246094 218.855469 167.476562 218.375 166.71875 C 217.910156 166.859375 217.417969 166.933594 216.90625 166.933594 C 216.273438 166.933594 215.667969 166.816406 215.109375 166.609375 C 213.128906 169.050781 211.015625 171.363281 208.800781 173.542969 C 207.183594 175.140625 205.511719 176.660156 203.796875 178.109375 C 202.222656 179.433594 200.613281 180.699219 198.976562 181.898438 C 199.066406 182.277344 199.117188 182.667969 199.117188 183.070312 C 199.117188 183.855469 198.933594 184.597656 198.609375 185.257812 C 203.410156 189.488281 208.332031 192.789062 213.035156 194.660156 C 215.359375 195.585938 217.632812 196.164062 219.8125 196.332031 C 220.109375 196.355469 220.40625 196.371094 220.699219 196.378906 C 222.027344 196.316406 223.539062 196.109375 225.289062 195.691406 C 229.285156 194.734375 229.351562 190.347656 229.078125 187.386719 Z M 228.210938 142.957031 C 227.066406 146.417969 225.664062 149.738281 224.046875 152.917969 C 223.398438 154.191406 222.714844 155.441406 222 156.667969 C 221.660156 157.359375 221.296875 158.054688 220.914062 158.75 C 221.585938 159.609375 221.984375 160.691406 221.984375 161.863281 C 221.984375 163.101562 221.539062 164.238281 220.800781 165.121094 L 220.820312 165.152344 C 224.125 170.367188 227.148438 175.941406 229.707031 181.542969 C 230.148438 181.007812 230.597656 180.78125 230.683594 180.742188 C 231.179688 180.484375 231.542969 180.171875 231.78125 179.828125 C 232.003906 179.507812 232.125 179.152344 232.140625 178.792969 C 232.160156 178.414062 232.070312 178.019531 231.878906 177.640625 C 231.644531 177.179688 231.261719 176.738281 230.738281 176.375 C 230.460938 176.1875 230.25 175.898438 230.160156 175.550781 C 229.960938 174.773438 230.425781 173.984375 231.199219 173.785156 C 233.523438 173.179688 233.621094 171.648438 233.257812 170.253906 C 233.070312 169.546875 232.777344 168.8125 232.527344 168.191406 C 232.410156 167.898438 232.300781 167.628906 232.207031 167.367188 C 231.101562 164.324219 233.867188 162.964844 237.3125 161.269531 C 237.808594 161.023438 238.320312 160.773438 238.847656 160.503906 C 239.75 160.035156 239.925781 159.429688 239.691406 158.753906 C 239.292969 157.589844 238.136719 156.179688 236.839844 154.746094 C 235.210938 152.941406 232.957031 150.195312 231.078125 147.558594 C 229.921875 145.929688 228.890625 144.320312 228.210938 142.957031 Z M 220.488281 105.945312 C 216.933594 101.335938 212.75 97.964844 208.179688 95.5625 C 201.003906 91.789062 192.851562 90.378906 184.695312 90.300781 C 184.5 90.300781 184.195312 90.300781 183.800781 90.300781 C 191.046875 92.335938 197.652344 95.335938 203.382812 99.082031 C 204.300781 99.679688 205.195312 100.300781 206.066406 100.933594 C 206.730469 100.550781 207.5 100.332031 208.320312 100.332031 C 210.394531 100.332031 212.140625 101.730469 212.671875 103.632812 C 213.597656 103.746094 214.480469 103.902344 215.320312 104.09375 C 217.25 104.535156 218.964844 105.167969 220.488281 105.945312 Z M 226.234375 115.457031 C 226.070312 115.320312 225.933594 115.144531 225.835938 114.9375 C 225.742188 114.726562 225.644531 114.515625 225.542969 114.304688 C 225.308594 113.941406 225.058594 113.585938 224.792969 113.238281 C 222.625 110.390625 219.394531 108 214.675781 106.917969 L 214.421875 106.863281 C 213.863281 106.742188 213.285156 106.640625 212.6875 106.554688 C 213.3125 107.171875 213.914062 107.800781 214.5 108.4375 C 217.332031 111.519531 219.722656 114.847656 221.613281 118.371094 C 224.375 123.515625 226.0625 129.058594 226.492188 134.820312 C 226.574219 135.945312 226.609375 137.078125 226.597656 138.214844 C 226.988281 136.734375 227.335938 135.226562 227.625 133.695312 C 227.707031 133.277344 227.78125 132.855469 227.855469 132.433594 L 227.871094 132.328125 L 227.878906 132.277344 L 227.890625 132.226562 L 227.972656 131.707031 C 227.980469 131.652344 227.996094 131.597656 228.007812 131.542969 C 228.277344 130.066406 228.535156 128.957031 228.609375 128.632812 C 228.613281 128.605469 228.617188 128.578125 228.625 128.550781 C 228.710938 128.171875 228.78125 127.703125 228.820312 127.160156 C 228.855469 126.765625 228.871094 126.335938 228.871094 125.871094 C 228.867188 123.015625 228.21875 119.066406 226.234375 115.457031 Z M 165.433594 105.292969 C 167.289062 105.292969 168.890625 106.390625 169.617188 107.972656 C 170.242188 107.925781 170.867188 107.886719 171.488281 107.855469 C 175.890625 107.652344 180.203125 107.886719 184.367188 108.496094 C 184.851562 107.359375 185.628906 106.378906 186.601562 105.644531 C 183.679688 100.652344 180.160156 96.445312 176.1875 93.265625 C 175.203125 94.121094 173.914062 94.636719 172.507812 94.636719 C 169.398438 94.636719 166.878906 92.117188 166.878906 89.015625 C 166.878906 85.90625 169.398438 83.390625 172.507812 83.390625 C 175.070312 83.390625 177.230469 85.101562 177.914062 87.445312 C 180.789062 87.410156 183.859375 87.398438 184.714844 87.40625 C 193.300781 87.488281 201.90625 88.984375 209.535156 92.996094 C 217.003906 96.925781 223.511719 103.242188 228.117188 112.953125 C 228.265625 113.191406 228.410156 113.429688 228.550781 113.671875 C 230.976562 117.875 231.761719 122.53125 231.765625 125.871094 C 231.769531 127.210938 231.644531 128.355469 231.453125 129.199219 C 231.445312 129.230469 231.4375 129.257812 231.429688 129.289062 C 231.359375 129.578125 231.113281 130.648438 230.851562 132.046875 C 230.847656 132.085938 230.84375 132.125 230.835938 132.160156 C 230.734375 132.800781 230.625 133.441406 230.503906 134.074219 C 230.125 136.589844 229.886719 139.421875 230.425781 140.820312 C 230.925781 142.117188 232.078125 143.960938 233.445312 145.878906 C 235.265625 148.445312 237.433594 151.085938 238.988281 152.804688 C 240.515625 154.488281 241.886719 156.195312 242.441406 157.8125 C 243.167969 159.917969 242.726562 161.765625 240.175781 163.078125 C 239.648438 163.351562 239.113281 163.613281 238.597656 163.867188 C 236.441406 164.925781 234.714844 165.777344 234.933594 166.382812 C 235.003906 166.578125 235.109375 166.835938 235.21875 167.113281 C 235.5 167.804688 235.828125 168.625 236.0625 169.527344 C 236.652344 171.792969 236.632812 174.230469 234.109375 175.71875 C 234.246094 175.921875 234.367188 176.128906 234.472656 176.335938 C 234.886719 177.164062 235.082031 178.050781 235.039062 178.925781 C 234.996094 179.820312 234.710938 180.695312 234.167969 181.476562 C 233.65625 182.214844 232.921875 182.859375 231.957031 183.34375 L 231.914062 183.367188 C 231.914062 183.367188 231.636719 183.46875 231.695312 184.628906 C 231.707031 184.816406 231.753906 185.199219 231.808594 185.660156 C 232.242188 189.203125 233.175781 196.78125 225.957031 198.507812 C 221.890625 199.476562 218.957031 199.433594 216.640625 199.085938 C 215.351562 198.890625 214.257812 198.601562 213.261719 198.339844 C 212.960938 198.261719 212.671875 198.183594 212.351562 198.105469 C 212.109375 198.113281 211.585938 198.136719 210.871094 198.238281 C 210.089844 198.347656 209.078125 198.546875 207.941406 198.90625 C 204.957031 199.855469 201.121094 201.929688 198.378906 206.460938 C 198.5625 206.605469 198.738281 206.757812 198.90625 206.925781 L 198.910156 206.929688 C 199.960938 207.980469 200.609375 209.429688 200.609375 211.027344 C 200.609375 212.625 199.960938 214.070312 198.910156 215.125 L 198.90625 215.128906 C 197.851562 216.179688 196.398438 216.828125 194.800781 216.828125 C 193.203125 216.828125 191.75 216.179688 190.699219 215.128906 L 190.695312 215.125 C 189.644531 214.074219 188.992188 212.625 188.992188 211.027344 C 188.992188 210.558594 189.046875 210.101562 189.15625 209.664062 L 169.417969 199.164062 C 169.359375 199.226562 169.300781 199.285156 169.242188 199.347656 L 169.242188 199.351562 L 169.238281 199.351562 C 168.183594 200.402344 166.734375 201.050781 165.136719 201.050781 C 163.535156 201.050781 162.085938 200.402344 161.035156 199.351562 L 161.027344 199.347656 C 159.976562 198.296875 159.328125 196.847656 159.328125 195.25 C 159.328125 193.652344 159.976562 192.203125 161.027344 191.152344 L 161.035156 191.144531 C 162.085938 190.097656 163.535156 189.445312 165.136719 189.445312 C 166.378906 189.445312 167.53125 189.839844 168.476562 190.507812 C 173.820312 185.621094 178.953125 179.597656 183.285156 172.972656 C 177.246094 165.164062 172.050781 156.464844 168.558594 148.179688 C 167.664062 146.0625 166.882812 143.976562 166.226562 141.933594 C 166.128906 141.9375 166.035156 141.941406 165.9375 141.941406 C 162.117188 141.941406 159.023438 138.847656 159.023438 135.03125 C 159.023438 131.21875 162.117188 128.125 165.9375 128.125 C 166.789062 128.125 167.601562 128.28125 168.355469 128.558594 C 168.933594 127.78125 169.53125 127.015625 170.148438 126.265625 C 173.253906 122.507812 176.855469 119.132812 180.660156 116.203125 C 181.492188 115.5625 182.335938 114.941406 183.1875 114.339844 C 183.527344 114.101562 183.867188 113.867188 184.210938 113.632812 C 183.953125 112.917969 183.808594 112.144531 183.800781 111.34375 C 179.753906 110.757812 175.558594 110.546875 171.277344 110.769531 C 170.828125 110.792969 170.378906 110.824219 169.929688 110.855469 C 169.480469 112.925781 167.640625 114.476562 165.433594 114.476562 C 162.894531 114.476562 160.835938 112.421875 160.835938 109.882812 C 160.835938 107.347656 162.894531 105.292969 165.433594 105.292969 Z M 165.433594 105.292969 "/></clipPath><linearGradient x1="-587.40528" gradientTransform="matrix(0.0207979,0,0,0.0207771,103.255983,83.391118)" y1="5293.805148" x2="7320.490609" gradientUnits="userSpaceOnUse" y2="1177.900929" id="c58e5cca2a"><stop style="stop-color:#41beea;stop-opacity:1;" offset="0"/><stop style="stop-color:#41beea;stop-opacity:1;" offset="0.25"/><stop style="stop-color:#41beea;stop-opacity:1;" offset="0.332606"/><stop style="stop-color:#41beea;stop-opacity:1;" offset="0.375"/><stop style="stop-color:#41beea;stop-opacity:1;" offset="0.4375"/><stop style="stop-color:#41beea;stop-opacity:1;" offset="0.453125"/><stop style="stop-color:#41bdea;stop-opacity:1;" offset="0.457031"/><stop style="stop-color:#41bce9;stop-opacity:1;" offset="0.460938"/><stop style="stop-color:#41bce8;stop-opacity:1;" offset="0.464844"/><stop style="stop-color:#40bbe8;stop-opacity:1;" offset="0.46875"/><stop style="stop-color:#40bae7;stop-opacity:1;" offset="0.472656"/><stop style="stop-color:#40b9e7;stop-opacity:1;" offset="0.476562"/><stop style="stop-color:#40b9e6;stop-opacity:1;" offset="0.480469"/><stop style="stop-color:#40b8e6;stop-opacity:1;" offset="0.484375"/><stop style="stop-color:#40b7e5;stop-opacity:1;" offset="0.488281"/><stop style="stop-color:#40b6e5;stop-opacity:1;" offset="0.492188"/><stop style="stop-color:#40b6e4;stop-opacity:1;" offset="0.496094"/><stop style="stop-color:#3fb5e4;stop-opacity:1;" offset="0.5"/><stop style="stop-color:#3fb4e3;stop-opacity:1;" offset="0.503906"/><stop style="stop-color:#3fb3e3;stop-opacity:1;" offset="0.507812"/><stop style="stop-color:#3fb3e2;stop-opacity:1;" offset="0.511719"/><stop style="stop-color:#3fb2e2;stop-opacity:1;" offset="0.515625"/><stop style="stop-color:#3fb1e1;stop-opacity:1;" offset="0.519531"/><stop style="stop-color:#3fb0e1;stop-opacity:1;" offset="0.523438"/><stop style="stop-color:#3eb0e0;stop-opacity:1;" offset="0.527344"/><stop style="stop-color:#3eafe0;stop-opacity:1;" offset="0.53125"/><stop style="stop-color:#3eaedf;stop-opacity:1;" offset="0.535156"/><stop style="stop-color:#3eaddf;stop-opacity:1;" offset="0.539062"/><stop style="stop-color:#3eacde;stop-opacity:1;" offset="0.542969"/><stop style="stop-color:#3eacde;stop-opacity:1;" offset="0.546875"/><stop style="stop-color:#3eabdd;stop-opacity:1;" offset="0.550781"/><stop style="stop-color:#3daadd;stop-opacity:1;" offset="0.554688"/><stop style="stop-color:#3da9dc;stop-opacity:1;" offset="0.558594"/><stop style="stop-color:#3da9dc;stop-opacity:1;" offset="0.5625"/><stop style="stop-color:#3da8db;stop-opacity:1;" offset="0.566406"/><stop style="stop-color:#3da7da;stop-opacity:1;" offset="0.570312"/><stop style="stop-color:#3da6da;stop-opacity:1;" offset="0.574219"/><stop style="stop-color:#3da6d9;stop-opacity:1;" offset="0.578125"/><stop style="stop-color:#3da5d9;stop-opacity:1;" offset="0.582031"/><stop style="stop-color:#3ca4d8;stop-opacity:1;" offset="0.585938"/><stop style="stop-color:#3ca3d8;stop-opacity:1;" offset="0.589844"/><stop style="stop-color:#3ca3d7;stop-opacity:1;" offset="0.59375"/><stop style="stop-color:#3ca2d7;stop-opacity:1;" offset="0.597656"/><stop style="stop-color:#3ca1d6;stop-opacity:1;" offset="0.601562"/><stop style="stop-color:#3ca0d6;stop-opacity:1;" offset="0.605469"/><stop style="stop-color:#3ca0d5;stop-opacity:1;" offset="0.609375"/><stop style="stop-color:#3b9fd5;stop-opacity:1;" offset="0.613281"/><stop style="stop-color:#3b9ed4;stop-opacity:1;" offset="0.617188"/><stop style="stop-color:#3b9dd4;stop-opacity:1;" offset="0.621094"/><stop style="stop-color:#3b9dd3;stop-opacity:1;" offset="0.625"/><stop style="stop-color:#3b9cd3;stop-opacity:1;" offset="0.628906"/><stop style="stop-color:#3b9bd2;stop-opacity:1;" offset="0.632812"/><stop style="stop-color:#3b9ad2;stop-opacity:1;" offset="0.636719"/><stop style="stop-color:#3b9ad1;stop-opacity:1;" offset="0.640625"/><stop style="stop-color:#3a99d1;stop-opacity:1;" offset="0.644531"/><stop style="stop-color:#3a98d0;stop-opacity:1;" offset="0.648438"/><stop style="stop-color:#3a97d0;stop-opacity:1;" offset="0.652344"/><stop style="stop-color:#3a96cf;stop-opacity:1;" offset="0.65625"/><stop style="stop-color:#3a96cf;stop-opacity:1;" offset="0.660156"/><stop style="stop-color:#3a95ce;stop-opacity:1;" offset="0.664062"/><stop style="stop-color:#3a94ce;stop-opacity:1;" offset="0.667969"/><stop style="stop-color:#3993cd;stop-opacity:1;" offset="0.671875"/><stop style="stop-color:#3993cc;stop-opacity:1;" offset="0.675781"/><stop style="stop-color:#3992cc;stop-opacity:1;" offset="0.679688"/><stop style="stop-color:#3991cb;stop-opacity:1;" offset="0.683594"/><stop style="stop-color:#3990cb;stop-opacity:1;" offset="0.6875"/><stop style="stop-color:#3990ca;stop-opacity:1;" offset="0.691406"/><stop style="stop-color:#398fca;stop-opacity:1;" offset="0.695312"/><stop style="stop-color:#388ec9;stop-opacity:1;" offset="0.699219"/><stop style="stop-color:#388dc9;stop-opacity:1;" offset="0.703125"/><stop style="stop-color:#388dc8;stop-opacity:1;" offset="0.707031"/><stop style="stop-color:#388cc8;stop-opacity:1;" offset="0.710938"/><stop style="stop-color:#388ac7;stop-opacity:1;" offset="0.714844"/><stop style="stop-color:#3789c6;stop-opacity:1;" offset="0.71875"/><stop style="stop-color:#3787c5;stop-opacity:1;" offset="0.722656"/><stop style="stop-color:#3785c4;stop-opacity:1;" offset="0.726562"/><stop style="stop-color:#3684c2;stop-opacity:1;" offset="0.730469"/><stop style="stop-color:#3682c1;stop-opacity:1;" offset="0.734375"/><stop style="stop-color:#3681c0;stop-opacity:1;" offset="0.738281"/><stop style="stop-color:#367fbf;stop-opacity:1;" offset="0.742188"/><stop style="stop-color:#357ebe;stop-opacity:1;" offset="0.746094"/><stop style="stop-color:#357cbd;stop-opacity:1;" offset="0.75"/><stop style="stop-color:#357abc;stop-opacity:1;" offset="0.753906"/><stop style="stop-color:#3479bb;stop-opacity:1;" offset="0.757812"/><stop style="stop-color:#3477ba;stop-opacity:1;" offset="0.761719"/><stop style="stop-color:#3476b9;stop-opacity:1;" offset="0.765625"/><stop style="stop-color:#3374b8;stop-opacity:1;" offset="0.769531"/><stop style="stop-color:#3372b7;stop-opacity:1;" offset="0.773438"/><stop style="stop-color:#3371b6;stop-opacity:1;" offset="0.777344"/><stop style="stop-color:#326fb5;stop-opacity:1;" offset="0.78125"/><stop style="stop-color:#326eb4;stop-opacity:1;" offset="0.785156"/><stop style="stop-color:#326cb3;stop-opacity:1;" offset="0.789062"/><stop style="stop-color:#316bb2;stop-opacity:1;" offset="0.792969"/><stop style="stop-color:#3169b1;stop-opacity:1;" offset="0.796875"/><stop style="stop-color:#3167b0;stop-opacity:1;" offset="0.800781"/><stop style="stop-color:#3066af;stop-opacity:1;" offset="0.804688"/><stop style="stop-color:#3064ae;stop-opacity:1;" offset="0.808594"/><stop style="stop-color:#3063ac;stop-opacity:1;" offset="0.8125"/><stop style="stop-color:#3061ab;stop-opacity:1;" offset="0.816406"/><stop style="stop-color:#2f60aa;stop-opacity:1;" offset="0.820312"/><stop style="stop-color:#2f5ea9;stop-opacity:1;" offset="0.824219"/><stop style="stop-color:#2f5ca8;stop-opacity:1;" offset="0.828125"/><stop style="stop-color:#2e5ba7;stop-opacity:1;" offset="0.832031"/><stop style="stop-color:#2e59a6;stop-opacity:1;" offset="0.835938"/><stop style="stop-color:#2e59a6;stop-opacity:1;" offset="0.84375"/><stop style="stop-color:#2e59a6;stop-opacity:1;" offset="0.875"/><stop style="stop-color:#2e59a6;stop-opacity:1;" offset="1"/></linearGradient></defs><g id="9414cebc4b"><g clip-rule="nonzero" clip-path="url(#9b4f8206ee)"><g clip-rule="evenodd" clip-path="url(#73459c8188)"><path style=" stroke:none;fill-rule:nonzero;fill:url(#c58e5cca2a);" d="M 103.257812 83.390625 L 103.257812 216.828125 L 242.757812 216.828125 L 242.757812 83.390625 Z M 103.257812 83.390625 "/></g></g><g style="fill:#38b6ff;fill-opacity:1;"><g transform="translate(26.154256, 228.981825)"><path style="stroke:none" d="M 16 0 L 11.953125 0 L 11.046875 -1.5625 L 5.046875 -1.5625 L 4.15625 0 L 0.09375 0 L 6.1875 -9.515625 L 9.90625 -9.515625 Z M 9.703125 -3.921875 L 8.046875 -6.796875 L 6.390625 -3.921875 Z M 9.703125 -3.921875 "/></g></g><g style="fill:#38b6ff;fill-opacity:1;"><g transform="translate(42.944077, 228.981825)"><path style="stroke:none" d="M 12.1875 0 L 1.0625 0 L 1.0625 -9.53125 L 5.0625 -9.53125 L 5.0625 -2.359375 L 12.1875 -2.359375 Z M 12.1875 0 "/></g></g><g style="fill:#38b6ff;fill-opacity:1;"><g transform="translate(56.083232, 228.981825)"><path style="stroke:none" d="M 12.53125 0 L 1.0625 0 L 1.0625 -9.53125 L 12 -9.53125 L 12 -7.171875 L 5.0625 -7.171875 L 5.0625 -5.671875 L 10.9375 -5.671875 L 10.9375 -3.84375 L 5.0625 -3.84375 L 5.0625 -2.359375 L 12.53125 -2.359375 Z M 12.53125 0 "/></g></g><g style="fill:#38b6ff;fill-opacity:1;"><g transform="translate(69.839682, 228.981825)"><path style="stroke:none" d="M 13.71875 0 L 9.671875 0 L 6.921875 -2.921875 L 4.15625 0 L 0.09375 0 L 5.0625 -4.875 L 0.09375 -9.515625 L 4.15625 -9.515625 L 6.921875 -6.796875 L 9.671875 -9.515625 L 13.71875 -9.515625 L 8.765625 -4.875 Z M 13.71875 0 "/></g></g><g style="fill:#38b6ff;fill-opacity:1;"><g transform="translate(84.359452, 228.981825)"><path style="stroke:none" d="M 7.203125 0.203125 C 4.847656 0.203125 3.113281 -0.28125 2 -1.25 C 1.019531 -2.101562 0.53125 -3.269531 0.53125 -4.75 C 0.53125 -6.226562 1.019531 -7.398438 2 -8.265625 C 3.113281 -9.222656 4.847656 -9.703125 7.203125 -9.703125 C 8.578125 -9.703125 9.71875 -9.546875 10.625 -9.234375 C 11.53125 -8.921875 12.234375 -8.488281 12.734375 -7.9375 C 13.234375 -7.382812 13.5625 -6.753906 13.71875 -6.046875 L 9.53125 -6.046875 C 9.101562 -6.785156 8.328125 -7.15625 7.203125 -7.15625 C 6.234375 -7.15625 5.523438 -6.878906 5.078125 -6.328125 C 4.710938 -5.878906 4.53125 -5.351562 4.53125 -4.75 C 4.53125 -4.144531 4.710938 -3.617188 5.078125 -3.171875 C 5.523438 -2.617188 6.234375 -2.34375 7.203125 -2.34375 C 8.328125 -2.34375 9.101562 -2.710938 9.53125 -3.453125 L 13.71875 -3.453125 C 13.5625 -2.742188 13.234375 -2.113281 12.734375 -1.5625 C 12.234375 -1.019531 11.53125 -0.585938 10.625 -0.265625 C 9.71875 0.046875 8.578125 0.203125 7.203125 0.203125 Z M 7.203125 0.203125 "/></g></g><g style="fill:#38b6ff;fill-opacity:1;"><g transform="translate(99.310665, 228.981825)"><path style="stroke:none" d="M 7.203125 0.203125 C 4.847656 0.203125 3.113281 -0.28125 2 -1.25 C 1.019531 -2.101562 0.53125 -3.273438 0.53125 -4.765625 C 0.53125 -6.234375 1.019531 -7.398438 2 -8.265625 C 3.113281 -9.234375 4.847656 -9.71875 7.203125 -9.71875 C 9.554688 -9.71875 11.289062 -9.234375 12.40625 -8.265625 C 13.382812 -7.398438 13.875 -6.234375 13.875 -4.765625 C 13.875 -3.273438 13.382812 -2.101562 12.40625 -1.25 C 11.289062 -0.28125 9.554688 0.203125 7.203125 0.203125 Z M 7.203125 -2.34375 C 8.171875 -2.34375 8.878906 -2.617188 9.328125 -3.171875 C 9.691406 -3.617188 9.875 -4.148438 9.875 -4.765625 C 9.875 -5.367188 9.691406 -5.890625 9.328125 -6.328125 C 8.878906 -6.890625 8.171875 -7.171875 7.203125 -7.171875 C 6.234375 -7.171875 5.523438 -6.890625 5.078125 -6.328125 C 4.710938 -5.890625 4.53125 -5.367188 4.53125 -4.765625 C 4.53125 -4.148438 4.710938 -3.617188 5.078125 -3.171875 C 5.523438 -2.617188 6.234375 -2.34375 7.203125 -2.34375 Z M 7.203125 -2.34375 "/></g></g><g style="fill:#38b6ff;fill-opacity:1;"><g transform="translate(114.407904, 228.981825)"><path style="stroke:none" d="M 19.171875 0 L 15.171875 0 L 15.171875 -6.078125 L 11.609375 0 L 8.625 0 L 5.0625 -6.078125 L 5.0625 0 L 1.0625 0 L 1.0625 -9.53125 L 5.8125 -9.53125 L 10.109375 -2.71875 L 14.421875 -9.53125 L 19.171875 -9.53125 Z M 19.171875 0 "/></g></g><g style="fill:#38b6ff;fill-opacity:1;"><g transform="translate(135.332933, 228.981825)"><path style="stroke:none" d="M 8.125 0 L 4.125 0 L 4.125 -7.171875 L 0.390625 -7.171875 L 0.390625 -9.53125 L 11.859375 -9.53125 L 11.859375 -7.171875 L 8.125 -7.171875 Z M 8.125 0 "/></g></g><g style="fill:#38b6ff;fill-opacity:1;"><g transform="translate(148.279599, 228.981825)"><path style="stroke:none" d="M 12.53125 0 L 1.0625 0 L 1.0625 -9.53125 L 12 -9.53125 L 12 -7.171875 L 5.0625 -7.171875 L 5.0625 -5.671875 L 10.9375 -5.671875 L 10.9375 -3.84375 L 5.0625 -3.84375 L 5.0625 -2.359375 L 12.53125 -2.359375 Z M 12.53125 0 "/></g></g><g style="fill:#38b6ff;fill-opacity:1;"><g transform="translate(162.036048, 228.981825)"><path style="stroke:none" d="M 7.203125 0.203125 C 4.847656 0.203125 3.113281 -0.28125 2 -1.25 C 1.019531 -2.101562 0.53125 -3.269531 0.53125 -4.75 C 0.53125 -6.226562 1.019531 -7.398438 2 -8.265625 C 3.113281 -9.222656 4.847656 -9.703125 7.203125 -9.703125 C 8.578125 -9.703125 9.71875 -9.546875 10.625 -9.234375 C 11.53125 -8.921875 12.234375 -8.488281 12.734375 -7.9375 C 13.234375 -7.382812 13.5625 -6.753906 13.71875 -6.046875 L 9.53125 -6.046875 C 9.101562 -6.785156 8.328125 -7.15625 7.203125 -7.15625 C 6.234375 -7.15625 5.523438 -6.878906 5.078125 -6.328125 C 4.710938 -5.878906 4.53125 -5.351562 4.53125 -4.75 C 4.53125 -4.144531 4.710938 -3.617188 5.078125 -3.171875 C 5.523438 -2.617188 6.234375 -2.34375 7.203125 -2.34375 C 8.328125 -2.34375 9.101562 -2.710938 9.53125 -3.453125 L 13.71875 -3.453125 C 13.5625 -2.742188 13.234375 -2.113281 12.734375 -1.5625 C 12.234375 -1.019531 11.53125 -0.585938 10.625 -0.265625 C 9.71875 0.046875 8.578125 0.203125 7.203125 0.203125 Z M 7.203125 0.203125 "/></g></g><g style="fill:#38b6ff;fill-opacity:1;"><g transform="translate(176.987261, 228.981825)"><path style="stroke:none" d="M 14.078125 0 L 10.078125 0 L 10.078125 -3.84375 L 5.0625 -3.84375 L 5.0625 0 L 1.0625 0 L 1.0625 -9.53125 L 5.0625 -9.53125 L 5.0625 -5.671875 L 10.078125 -5.671875 L 10.078125 -9.53125 L 14.078125 -9.53125 Z M 14.078125 0 "/></g></g><g style="fill:#38b6ff;fill-opacity:1;"><g transform="translate(192.814634, 228.981825)"><path style="stroke:none" d=""/></g></g><g style="fill:#38b6ff;fill-opacity:1;"><g transform="translate(196.880228, 228.981825)"><path style="stroke:none" d="M 12.53125 0 L 1.0625 0 L 1.0625 -9.53125 L 12 -9.53125 L 12 -7.171875 L 5.0625 -7.171875 L 5.0625 -5.671875 L 10.9375 -5.671875 L 10.9375 -3.84375 L 5.0625 -3.84375 L 5.0625 -2.359375 L 12.53125 -2.359375 Z M 12.53125 0 "/></g></g><g style="fill:#38b6ff;fill-opacity:1;"><g transform="translate(210.636677, 228.981825)"><path style="stroke:none" d="M 15.1875 0 L 10.4375 0 L 5.0625 -6.4375 L 5.0625 0 L 1.0625 0 L 1.0625 -9.53125 L 5.8125 -9.53125 L 11.203125 -3.109375 L 11.203125 -9.53125 L 15.1875 -9.53125 Z M 15.1875 0 "/></g></g><g style="fill:#38b6ff;fill-opacity:1;"><g transform="translate(227.585799, 228.981825)"><path style="stroke:none" d="M 8.125 0 L 4.125 0 L 4.125 -7.171875 L 0.390625 -7.171875 L 0.390625 -9.53125 L 11.859375 -9.53125 L 11.859375 -7.171875 L 8.125 -7.171875 Z M 8.125 0 "/></g></g><g style="fill:#38b6ff;fill-opacity:1;"><g transform="translate(240.532477, 228.981825)"><path style="stroke:none" d="M 14.0625 0 L 10.28125 0 C 10.113281 -0.238281 9.992188 -0.546875 9.921875 -0.921875 C 9.859375 -1.203125 9.765625 -1.476562 9.640625 -1.75 C 9.515625 -2.03125 9.300781 -2.265625 9 -2.453125 C 8.695312 -2.640625 8.25 -2.738281 7.65625 -2.75 L 5.0625 -2.75 L 5.0625 0 L 1.0625 0 L 1.0625 -9.53125 L 7.5625 -9.53125 C 9.113281 -9.53125 10.363281 -9.410156 11.3125 -9.171875 C 12.269531 -8.941406 12.96875 -8.578125 13.40625 -8.078125 C 13.84375 -7.578125 14.0625 -6.929688 14.0625 -6.140625 C 14.0625 -5.460938 13.910156 -4.894531 13.609375 -4.4375 C 13.304688 -3.988281 12.828125 -3.628906 12.171875 -3.359375 C 12.804688 -3.097656 13.21875 -2.785156 13.40625 -2.421875 C 13.59375 -2.054688 13.707031 -1.65625 13.75 -1.21875 C 13.789062 -0.832031 13.894531 -0.425781 14.0625 0 Z M 5.0625 -5.09375 L 7.34375 -5.109375 C 7.976562 -5.109375 8.476562 -5.132812 8.84375 -5.1875 C 9.21875 -5.25 9.488281 -5.328125 9.65625 -5.421875 C 9.832031 -5.523438 9.941406 -5.632812 9.984375 -5.75 C 10.035156 -5.875 10.0625 -6.003906 10.0625 -6.140625 C 10.0625 -6.265625 10.035156 -6.390625 9.984375 -6.515625 C 9.941406 -6.640625 9.832031 -6.75 9.65625 -6.84375 C 9.488281 -6.945312 9.21875 -7.023438 8.84375 -7.078125 C 8.476562 -7.140625 7.976562 -7.171875 7.34375 -7.171875 L 5.0625 -7.171875 Z M 5.0625 -5.09375 "/></g></g><g style="fill:#38b6ff;fill-opacity:1;"><g transform="translate(255.822195, 228.981825)"><path style="stroke:none" d="M 12.53125 0 L 1.0625 0 L 1.0625 -9.53125 L 12 -9.53125 L 12 -7.171875 L 5.0625 -7.171875 L 5.0625 -5.671875 L 10.9375 -5.671875 L 10.9375 -3.84375 L 5.0625 -3.84375 L 5.0625 -2.359375 L 12.53125 -2.359375 Z M 12.53125 0 "/></g></g><g style="fill:#38b6ff;fill-opacity:1;"><g transform="translate(269.578633, 228.981825)"><path style="stroke:none" d="M 5.0625 0 L 1.0625 0 L 1.0625 -9.53125 L 7.5625 -9.53125 C 9.113281 -9.53125 10.363281 -9.410156 11.3125 -9.171875 C 12.269531 -8.941406 12.96875 -8.578125 13.40625 -8.078125 C 13.84375 -7.578125 14.0625 -6.929688 14.0625 -6.140625 C 14.0625 -5.335938 13.84375 -4.6875 13.40625 -4.1875 C 12.96875 -3.6875 12.269531 -3.320312 11.3125 -3.09375 C 10.363281 -2.863281 9.113281 -2.75 7.5625 -2.75 L 5.0625 -2.75 Z M 5.0625 -5.09375 L 7.34375 -5.109375 C 7.976562 -5.109375 8.476562 -5.128906 8.84375 -5.171875 C 9.21875 -5.222656 9.488281 -5.296875 9.65625 -5.390625 C 9.832031 -5.484375 9.941406 -5.59375 9.984375 -5.71875 C 10.035156 -5.851562 10.0625 -5.992188 10.0625 -6.140625 C 10.0625 -6.285156 10.035156 -6.421875 9.984375 -6.546875 C 9.941406 -6.671875 9.832031 -6.78125 9.65625 -6.875 C 9.488281 -6.96875 9.21875 -7.039062 8.84375 -7.09375 C 8.476562 -7.144531 7.976562 -7.171875 7.34375 -7.171875 L 5.0625 -7.171875 Z M 5.0625 -5.09375 "/></g></g><g style="fill:#38b6ff;fill-opacity:1;"><g transform="translate(284.868374, 228.981825)"><path style="stroke:none" d="M 14.0625 0 L 10.28125 0 C 10.113281 -0.238281 9.992188 -0.546875 9.921875 -0.921875 C 9.859375 -1.203125 9.765625 -1.476562 9.640625 -1.75 C 9.515625 -2.03125 9.300781 -2.265625 9 -2.453125 C 8.695312 -2.640625 8.25 -2.738281 7.65625 -2.75 L 5.0625 -2.75 L 5.0625 0 L 1.0625 0 L 1.0625 -9.53125 L 7.5625 -9.53125 C 9.113281 -9.53125 10.363281 -9.410156 11.3125 -9.171875 C 12.269531 -8.941406 12.96875 -8.578125 13.40625 -8.078125 C 13.84375 -7.578125 14.0625 -6.929688 14.0625 -6.140625 C 14.0625 -5.460938 13.910156 -4.894531 13.609375 -4.4375 C 13.304688 -3.988281 12.828125 -3.628906 12.171875 -3.359375 C 12.804688 -3.097656 13.21875 -2.785156 13.40625 -2.421875 C 13.59375 -2.054688 13.707031 -1.65625 13.75 -1.21875 C 13.789062 -0.832031 13.894531 -0.425781 14.0625 0 Z M 5.0625 -5.09375 L 7.34375 -5.109375 C 7.976562 -5.109375 8.476562 -5.132812 8.84375 -5.1875 C 9.21875 -5.25 9.488281 -5.328125 9.65625 -5.421875 C 9.832031 -5.523438 9.941406 -5.632812 9.984375 -5.75 C 10.035156 -5.875 10.0625 -6.003906 10.0625 -6.140625 C 10.0625 -6.265625 10.035156 -6.390625 9.984375 -6.515625 C 9.941406 -6.640625 9.832031 -6.75 9.65625 -6.84375 C 9.488281 -6.945312 9.21875 -7.023438 8.84375 -7.078125 C 8.476562 -7.140625 7.976562 -7.171875 7.34375 -7.171875 L 5.0625 -7.171875 Z M 5.0625 -5.09375 "/></g></g><g style="fill:#38b6ff;fill-opacity:1;"><g transform="translate(300.158114, 228.981825)"><path style="stroke:none" d="M 5.0625 0 L 1.0625 0 L 1.0625 -9.53125 L 5.0625 -9.53125 Z M 5.0625 0 "/></g></g><g style="fill:#38b6ff;fill-opacity:1;"><g transform="translate(306.971651, 228.981825)"><path style="stroke:none" d="M 6.296875 0.203125 C 5.003906 0.203125 3.960938 0.0664062 3.171875 -0.203125 C 2.390625 -0.484375 1.789062 -0.863281 1.375 -1.34375 C 0.96875 -1.832031 0.691406 -2.394531 0.546875 -3.03125 L 4.796875 -3.03125 C 5.109375 -2.570312 5.609375 -2.34375 6.296875 -2.34375 C 6.984375 -2.34375 7.484375 -2.570312 7.796875 -3.03125 C 7.816406 -3.070312 7.828125 -3.109375 7.828125 -3.140625 C 7.828125 -3.265625 7.671875 -3.351562 7.359375 -3.40625 C 7.046875 -3.46875 6.570312 -3.515625 5.9375 -3.546875 C 5.144531 -3.585938 4.3125 -3.671875 3.4375 -3.796875 C 1.5 -4.097656 0.53125 -4.878906 0.53125 -6.140625 C 0.53125 -6.253906 0.535156 -6.367188 0.546875 -6.484375 C 0.691406 -7.117188 0.96875 -7.675781 1.375 -8.15625 C 1.789062 -8.644531 2.390625 -9.023438 3.171875 -9.296875 C 3.960938 -9.578125 5.003906 -9.71875 6.296875 -9.71875 C 7.578125 -9.71875 8.613281 -9.578125 9.40625 -9.296875 C 10.195312 -9.023438 10.796875 -8.644531 11.203125 -8.15625 C 11.617188 -7.675781 11.894531 -7.117188 12.03125 -6.484375 L 7.796875 -6.484375 C 7.484375 -6.929688 6.984375 -7.15625 6.296875 -7.15625 C 5.609375 -7.15625 5.109375 -6.929688 4.796875 -6.484375 C 4.773438 -6.453125 4.765625 -6.421875 4.765625 -6.390625 C 4.765625 -6.273438 4.914062 -6.191406 5.21875 -6.140625 C 5.519531 -6.097656 5.960938 -6.054688 6.546875 -6.015625 C 7.140625 -5.984375 7.769531 -5.925781 8.4375 -5.84375 C 9.101562 -5.769531 9.726562 -5.632812 10.3125 -5.4375 C 10.894531 -5.238281 11.351562 -4.945312 11.6875 -4.5625 C 11.9375 -4.257812 12.0625 -3.882812 12.0625 -3.4375 C 12.0625 -3.300781 12.050781 -3.164062 12.03125 -3.03125 C 11.894531 -2.394531 11.617188 -1.832031 11.203125 -1.34375 C 10.796875 -0.863281 10.195312 -0.484375 9.40625 -0.203125 C 8.613281 0.0664062 7.578125 0.203125 6.296875 0.203125 Z M 6.296875 0.203125 "/></g></g><g style="fill:#38b6ff;fill-opacity:1;"><g transform="translate(320.263459, 228.981825)"><path style="stroke:none" d="M 12.53125 0 L 1.0625 0 L 1.0625 -9.53125 L 12 -9.53125 L 12 -7.171875 L 5.0625 -7.171875 L 5.0625 -5.671875 L 10.9375 -5.671875 L 10.9375 -3.84375 L 5.0625 -3.84375 L 5.0625 -2.359375 L 12.53125 -2.359375 Z M 12.53125 0 "/></g></g><g style="fill:#38b6ff;fill-opacity:1;"><g transform="translate(81.167376, 248.957943)"><path style="stroke:none" d="M 0.59375 0.03125 C 0.539062 0.03125 0.5 0.0078125 0.46875 -0.03125 C 0.445312 -0.0703125 0.4375 -0.125 0.4375 -0.1875 C 0.4375 -0.289062 0.453125 -0.351562 0.484375 -0.375 C 0.523438 -0.394531 0.59375 -0.40625 0.6875 -0.40625 C 0.875 -0.40625 1.015625 -0.4375 1.109375 -0.5 C 1.203125 -0.570312 1.257812 -0.660156 1.28125 -0.765625 C 1.3125 -0.867188 1.328125 -1.003906 1.328125 -1.171875 L 1.328125 -5.140625 C 1.328125 -5.316406 1.3125 -5.453125 1.28125 -5.546875 C 1.257812 -5.648438 1.203125 -5.738281 1.109375 -5.8125 C 1.015625 -5.882812 0.875 -5.921875 0.6875 -5.921875 L 0.625 -5.921875 C 0.550781 -5.921875 0.5 -5.929688 0.46875 -5.953125 C 0.445312 -5.972656 0.4375 -6.03125 0.4375 -6.125 C 0.4375 -6.1875 0.445312 -6.238281 0.46875 -6.28125 C 0.5 -6.320312 0.539062 -6.34375 0.59375 -6.34375 C 1.039062 -6.320312 1.441406 -6.3125 1.796875 -6.3125 L 3.359375 -6.3125 C 3.992188 -6.3125 4.570312 -6.179688 5.09375 -5.921875 C 5.625 -5.671875 6.039062 -5.304688 6.34375 -4.828125 C 6.644531 -4.347656 6.796875 -3.78125 6.796875 -3.125 C 6.796875 -2.445312 6.625 -1.867188 6.28125 -1.390625 C 5.9375 -0.921875 5.488281 -0.570312 4.9375 -0.34375 C 4.382812 -0.113281 3.796875 0 3.171875 0 L 1.796875 0 C 1.441406 0 1.039062 0.0078125 0.59375 0.03125 Z M 3.328125 -0.375 C 4.109375 -0.375 4.679688 -0.613281 5.046875 -1.09375 C 5.410156 -1.582031 5.59375 -2.257812 5.59375 -3.125 C 5.59375 -3.675781 5.492188 -4.164062 5.296875 -4.59375 C 5.097656 -5.019531 4.8125 -5.351562 4.4375 -5.59375 C 4.0625 -5.832031 3.617188 -5.953125 3.109375 -5.953125 L 2.328125 -5.953125 L 2.328125 -1.046875 C 2.328125 -0.785156 2.40625 -0.609375 2.5625 -0.515625 C 2.71875 -0.421875 2.972656 -0.375 3.328125 -0.375 Z M 3.328125 -0.375 "/></g></g><g style="fill:#38b6ff;fill-opacity:1;"><g transform="translate(90.516981, 248.957943)"><path style="stroke:none" d="M 0.59375 0.03125 C 0.539062 0.03125 0.5 0.0078125 0.46875 -0.03125 C 0.445312 -0.0703125 0.4375 -0.125 0.4375 -0.1875 C 0.4375 -0.289062 0.453125 -0.351562 0.484375 -0.375 C 0.523438 -0.394531 0.59375 -0.40625 0.6875 -0.40625 C 0.875 -0.40625 1.015625 -0.4375 1.109375 -0.5 C 1.203125 -0.570312 1.257812 -0.660156 1.28125 -0.765625 C 1.3125 -0.867188 1.328125 -1.003906 1.328125 -1.171875 L 1.328125 -5.140625 C 1.328125 -5.316406 1.3125 -5.453125 1.28125 -5.546875 C 1.257812 -5.648438 1.203125 -5.738281 1.109375 -5.8125 C 1.015625 -5.882812 0.875 -5.921875 0.6875 -5.921875 L 0.625 -5.921875 C 0.550781 -5.921875 0.5 -5.929688 0.46875 -5.953125 C 0.445312 -5.972656 0.4375 -6.03125 0.4375 -6.125 C 0.4375 -6.1875 0.445312 -6.238281 0.46875 -6.28125 C 0.5 -6.320312 0.539062 -6.34375 0.59375 -6.34375 C 1.039062 -6.320312 1.441406 -6.3125 1.796875 -6.3125 L 4.9375 -6.3125 C 5.113281 -6.3125 5.203125 -6.234375 5.203125 -6.078125 L 5.234375 -4.671875 C 5.234375 -4.617188 5.203125 -4.570312 5.140625 -4.53125 C 5.078125 -4.5 5.015625 -4.484375 4.953125 -4.484375 C 4.878906 -4.484375 4.8125 -4.492188 4.75 -4.515625 C 4.6875 -4.546875 4.648438 -4.59375 4.640625 -4.65625 C 4.585938 -4.976562 4.53125 -5.222656 4.46875 -5.390625 C 4.40625 -5.566406 4.3125 -5.695312 4.1875 -5.78125 C 4.0625 -5.863281 3.890625 -5.910156 3.671875 -5.921875 L 2.328125 -5.921875 L 2.328125 -3.375 L 4.140625 -3.375 C 4.179688 -3.363281 4.210938 -3.335938 4.234375 -3.296875 C 4.265625 -3.253906 4.28125 -3.203125 4.28125 -3.140625 C 4.28125 -3.085938 4.265625 -3.039062 4.234375 -3 C 4.210938 -2.957031 4.179688 -2.9375 4.140625 -2.9375 L 2.328125 -2.9375 L 2.328125 -1.046875 C 2.335938 -0.910156 2.351562 -0.800781 2.375 -0.71875 C 2.394531 -0.632812 2.453125 -0.554688 2.546875 -0.484375 C 2.648438 -0.421875 2.8125 -0.394531 3.03125 -0.40625 L 3.953125 -0.40625 C 4.179688 -0.40625 4.351562 -0.441406 4.46875 -0.515625 C 4.59375 -0.585938 4.691406 -0.695312 4.765625 -0.84375 C 4.835938 -0.988281 4.921875 -1.226562 5.015625 -1.5625 C 5.066406 -1.6875 5.179688 -1.734375 5.359375 -1.703125 C 5.421875 -1.691406 5.476562 -1.664062 5.53125 -1.625 C 5.582031 -1.582031 5.601562 -1.53125 5.59375 -1.46875 L 5.40625 -0.203125 C 5.382812 -0.117188 5.351562 -0.0625 5.3125 -0.03125 C 5.269531 -0.0078125 5.203125 0 5.109375 0 L 1.796875 0 C 1.441406 0 1.039062 0.0078125 0.59375 0.03125 Z M 0.59375 0.03125 "/></g></g><g style="fill:#38b6ff;fill-opacity:1;"><g transform="translate(98.525533, 248.957943)"><path style="stroke:none" d="M 2.65625 0.203125 C 1.957031 0.203125 1.421875 0.0820312 1.046875 -0.15625 C 0.671875 -0.40625 0.484375 -0.765625 0.484375 -1.234375 C 0.484375 -1.484375 0.566406 -1.6875 0.734375 -1.84375 C 0.898438 -2 1.113281 -2.078125 1.375 -2.078125 C 1.53125 -2.066406 1.644531 -2.023438 1.71875 -1.953125 C 1.800781 -1.890625 1.84375 -1.828125 1.84375 -1.765625 C 1.84375 -1.753906 1.804688 -1.726562 1.734375 -1.6875 C 1.671875 -1.644531 1.613281 -1.582031 1.5625 -1.5 C 1.507812 -1.425781 1.484375 -1.320312 1.484375 -1.1875 C 1.484375 -0.875 1.578125 -0.628906 1.765625 -0.453125 C 1.953125 -0.285156 2.25 -0.203125 2.65625 -0.203125 C 2.925781 -0.203125 3.164062 -0.253906 3.375 -0.359375 C 3.582031 -0.460938 3.738281 -0.601562 3.84375 -0.78125 C 3.957031 -0.957031 4.015625 -1.144531 4.015625 -1.34375 C 4.015625 -1.582031 3.945312 -1.785156 3.8125 -1.953125 C 3.675781 -2.128906 3.503906 -2.273438 3.296875 -2.390625 C 3.097656 -2.515625 2.828125 -2.648438 2.484375 -2.796875 C 2.085938 -2.984375 1.765625 -3.148438 1.515625 -3.296875 C 1.265625 -3.441406 1.050781 -3.632812 0.875 -3.875 C 0.707031 -4.125 0.625 -4.425781 0.625 -4.78125 C 0.625 -5.363281 0.820312 -5.796875 1.21875 -6.078125 C 1.613281 -6.367188 2.132812 -6.515625 2.78125 -6.515625 C 3.289062 -6.515625 3.734375 -6.40625 4.109375 -6.1875 C 4.484375 -5.976562 4.671875 -5.671875 4.671875 -5.265625 C 4.671875 -5.015625 4.585938 -4.8125 4.421875 -4.65625 C 4.265625 -4.5 4.054688 -4.421875 3.796875 -4.421875 C 3.640625 -4.429688 3.519531 -4.46875 3.4375 -4.53125 C 3.363281 -4.601562 3.328125 -4.671875 3.328125 -4.734375 C 3.328125 -4.742188 3.367188 -4.769531 3.453125 -4.8125 C 3.546875 -4.851562 3.628906 -4.910156 3.703125 -4.984375 C 3.773438 -5.066406 3.8125 -5.175781 3.8125 -5.3125 C 3.8125 -5.5625 3.710938 -5.753906 3.515625 -5.890625 C 3.328125 -6.035156 3.085938 -6.109375 2.796875 -6.109375 C 2.390625 -6.109375 2.078125 -6.007812 1.859375 -5.8125 C 1.648438 -5.625 1.546875 -5.394531 1.546875 -5.125 C 1.546875 -4.882812 1.609375 -4.6875 1.734375 -4.53125 C 1.867188 -4.375 2.078125 -4.21875 2.359375 -4.0625 C 2.578125 -3.945312 2.820312 -3.828125 3.09375 -3.703125 C 3.519531 -3.515625 3.859375 -3.335938 4.109375 -3.171875 C 4.359375 -3.015625 4.566406 -2.804688 4.734375 -2.546875 C 4.910156 -2.285156 5 -1.960938 5 -1.578125 C 5 -1.242188 4.890625 -0.941406 4.671875 -0.671875 C 4.460938 -0.398438 4.179688 -0.1875 3.828125 -0.03125 C 3.472656 0.125 3.082031 0.203125 2.65625 0.203125 Z M 2.65625 0.203125 "/></g></g><g style="fill:#38b6ff;fill-opacity:1;"><g transform="translate(106.043706, 248.957943)"><path style="stroke:none" d="M 0.59375 0.03125 C 0.539062 0.03125 0.5 0.0078125 0.46875 -0.03125 C 0.4375 -0.0703125 0.421875 -0.125 0.421875 -0.1875 C 0.429688 -0.289062 0.453125 -0.351562 0.484375 -0.375 C 0.523438 -0.394531 0.585938 -0.40625 0.671875 -0.40625 C 0.867188 -0.40625 1.007812 -0.4375 1.09375 -0.5 C 1.1875 -0.570312 1.25 -0.65625 1.28125 -0.75 C 1.3125 -0.851562 1.328125 -0.992188 1.328125 -1.171875 L 1.328125 -5.140625 C 1.328125 -5.316406 1.3125 -5.453125 1.28125 -5.546875 C 1.25 -5.648438 1.1875 -5.738281 1.09375 -5.8125 C 1.007812 -5.882812 0.867188 -5.921875 0.671875 -5.921875 L 0.609375 -5.921875 C 0.546875 -5.921875 0.5 -5.929688 0.46875 -5.953125 C 0.445312 -5.972656 0.429688 -6.03125 0.421875 -6.125 C 0.421875 -6.1875 0.4375 -6.238281 0.46875 -6.28125 C 0.5 -6.320312 0.539062 -6.34375 0.59375 -6.34375 C 1.03125 -6.320312 1.429688 -6.3125 1.796875 -6.3125 C 2.191406 -6.3125 2.609375 -6.320312 3.046875 -6.34375 C 3.109375 -6.34375 3.148438 -6.320312 3.171875 -6.28125 C 3.203125 -6.238281 3.21875 -6.1875 3.21875 -6.125 C 3.21875 -6.03125 3.195312 -5.972656 3.15625 -5.953125 C 3.125 -5.929688 3.0625 -5.921875 2.96875 -5.921875 C 2.769531 -5.921875 2.625 -5.882812 2.53125 -5.8125 C 2.4375 -5.738281 2.378906 -5.648438 2.359375 -5.546875 C 2.335938 -5.453125 2.320312 -5.316406 2.3125 -5.140625 L 2.3125 -1.171875 C 2.320312 -1.003906 2.335938 -0.867188 2.359375 -0.765625 C 2.378906 -0.660156 2.4375 -0.570312 2.53125 -0.5 C 2.625 -0.4375 2.769531 -0.40625 2.96875 -0.40625 L 3.03125 -0.40625 C 3.09375 -0.40625 3.140625 -0.390625 3.171875 -0.359375 C 3.203125 -0.335938 3.21875 -0.28125 3.21875 -0.1875 C 3.21875 -0.125 3.203125 -0.0703125 3.171875 -0.03125 C 3.148438 0.0078125 3.109375 0.03125 3.046875 0.03125 C 2.617188 0.0078125 2.203125 0 1.796875 0 C 1.429688 0 1.03125 0.0078125 0.59375 0.03125 Z M 0.59375 0.03125 "/></g></g><g style="fill:#38b6ff;fill-opacity:1;"><g transform="translate(111.75045, 248.957943)"><path style="stroke:none" d="M 3.59375 0.203125 C 3.007812 0.203125 2.484375 0.0820312 2.015625 -0.15625 C 1.546875 -0.40625 1.171875 -0.773438 0.890625 -1.265625 C 0.617188 -1.765625 0.484375 -2.378906 0.484375 -3.109375 C 0.484375 -3.785156 0.628906 -4.378906 0.921875 -4.890625 C 1.222656 -5.410156 1.640625 -5.8125 2.171875 -6.09375 C 2.703125 -6.375 3.304688 -6.515625 3.984375 -6.515625 C 4.316406 -6.515625 4.644531 -6.460938 4.96875 -6.359375 C 5.300781 -6.265625 5.570312 -6.109375 5.78125 -5.890625 C 6 -5.679688 6.109375 -5.421875 6.109375 -5.109375 C 6.109375 -4.816406 6.019531 -4.5625 5.84375 -4.34375 C 5.675781 -4.132812 5.445312 -4.03125 5.15625 -4.03125 C 5.019531 -4.03125 4.882812 -4.0625 4.75 -4.125 C 4.625 -4.195312 4.554688 -4.285156 4.546875 -4.390625 C 4.546875 -4.390625 4.585938 -4.421875 4.671875 -4.484375 C 4.765625 -4.554688 4.847656 -4.648438 4.921875 -4.765625 C 5.003906 -4.878906 5.046875 -5.015625 5.046875 -5.171875 C 5.046875 -5.453125 4.9375 -5.679688 4.71875 -5.859375 C 4.5 -6.035156 4.210938 -6.125 3.859375 -6.125 C 3.453125 -6.125 3.082031 -6.003906 2.75 -5.765625 C 2.414062 -5.535156 2.148438 -5.195312 1.953125 -4.75 C 1.753906 -4.3125 1.65625 -3.785156 1.65625 -3.171875 C 1.65625 -2.578125 1.75 -2.0625 1.9375 -1.625 C 2.132812 -1.195312 2.40625 -0.867188 2.75 -0.640625 C 3.09375 -0.410156 3.492188 -0.296875 3.953125 -0.296875 C 4.160156 -0.296875 4.34375 -0.304688 4.5 -0.328125 C 4.664062 -0.347656 4.84375 -0.390625 5.03125 -0.453125 L 5.03125 -1.46875 C 5.03125 -1.707031 5.019531 -1.875 5 -1.96875 C 4.988281 -2.0625 4.9375 -2.128906 4.84375 -2.171875 C 4.75 -2.222656 4.597656 -2.25 4.390625 -2.25 C 4.316406 -2.25 4.257812 -2.257812 4.21875 -2.28125 C 4.1875 -2.300781 4.171875 -2.359375 4.171875 -2.453125 C 4.171875 -2.515625 4.1875 -2.566406 4.21875 -2.609375 C 4.257812 -2.648438 4.3125 -2.671875 4.375 -2.671875 C 4.800781 -2.648438 5.171875 -2.640625 5.484375 -2.640625 C 5.773438 -2.640625 6.132812 -2.648438 6.5625 -2.671875 C 6.625 -2.671875 6.671875 -2.648438 6.703125 -2.609375 C 6.734375 -2.566406 6.75 -2.515625 6.75 -2.453125 C 6.738281 -2.359375 6.71875 -2.300781 6.6875 -2.28125 C 6.65625 -2.257812 6.601562 -2.25 6.53125 -2.25 C 6.332031 -2.25 6.1875 -2.21875 6.09375 -2.15625 C 6.007812 -2.101562 5.957031 -2.03125 5.9375 -1.9375 C 5.914062 -1.84375 5.90625 -1.6875 5.90625 -1.46875 L 5.90625 -0.296875 C 5.507812 -0.109375 5.148438 0.0195312 4.828125 0.09375 C 4.503906 0.164062 4.09375 0.203125 3.59375 0.203125 Z M 3.59375 0.203125 "/></g></g><g style="fill:#38b6ff;fill-opacity:1;"><g transform="translate(120.739772, 248.957943)"><path style="stroke:none" d="M 0.625 0.03125 C 0.5625 0.03125 0.515625 0.0078125 0.484375 -0.03125 C 0.453125 -0.0703125 0.4375 -0.125 0.4375 -0.1875 C 0.445312 -0.289062 0.46875 -0.351562 0.5 -0.375 C 0.53125 -0.394531 0.59375 -0.40625 0.6875 -0.40625 C 0.882812 -0.40625 1.023438 -0.4375 1.109375 -0.5 C 1.203125 -0.570312 1.257812 -0.65625 1.28125 -0.75 C 1.300781 -0.851562 1.316406 -0.992188 1.328125 -1.171875 L 1.34375 -5.140625 C 1.34375 -5.347656 1.320312 -5.503906 1.28125 -5.609375 C 1.238281 -5.710938 1.171875 -5.785156 1.078125 -5.828125 C 0.984375 -5.878906 0.847656 -5.921875 0.671875 -5.953125 C 0.554688 -5.972656 0.484375 -5.992188 0.453125 -6.015625 C 0.429688 -6.035156 0.421875 -6.09375 0.421875 -6.1875 C 0.421875 -6.257812 0.441406 -6.304688 0.484375 -6.328125 C 0.523438 -6.359375 0.59375 -6.375 0.6875 -6.375 C 1.101562 -6.375 1.429688 -6.34375 1.671875 -6.28125 C 1.910156 -6.226562 2.117188 -6.128906 2.296875 -5.984375 C 2.484375 -5.835938 2.691406 -5.613281 2.921875 -5.3125 L 5.65625 -1.71875 L 5.6875 -1.71875 L 5.671875 -5.140625 C 5.660156 -5.328125 5.644531 -5.46875 5.625 -5.5625 C 5.601562 -5.65625 5.546875 -5.738281 5.453125 -5.8125 C 5.367188 -5.882812 5.226562 -5.921875 5.03125 -5.921875 L 4.984375 -5.921875 C 4.910156 -5.921875 4.859375 -5.929688 4.828125 -5.953125 C 4.796875 -5.972656 4.78125 -6.03125 4.78125 -6.125 C 4.78125 -6.1875 4.796875 -6.238281 4.828125 -6.28125 C 4.859375 -6.320312 4.898438 -6.34375 4.953125 -6.34375 C 5.378906 -6.320312 5.703125 -6.3125 5.921875 -6.3125 C 6.046875 -6.3125 6.289062 -6.320312 6.65625 -6.34375 L 6.859375 -6.34375 C 6.921875 -6.34375 6.96875 -6.320312 7 -6.28125 C 7.03125 -6.238281 7.046875 -6.1875 7.046875 -6.125 C 7.035156 -6.03125 7.015625 -5.972656 6.984375 -5.953125 C 6.953125 -5.929688 6.890625 -5.921875 6.796875 -5.921875 C 6.597656 -5.921875 6.453125 -5.882812 6.359375 -5.8125 C 6.273438 -5.738281 6.222656 -5.65625 6.203125 -5.5625 C 6.179688 -5.46875 6.164062 -5.328125 6.15625 -5.140625 L 6.140625 -0.09375 C 6.128906 -0.0078125 6.046875 0.03125 5.890625 0.03125 C 5.765625 0.03125 5.664062 -0.0078125 5.59375 -0.09375 L 1.828125 -5.140625 L 1.796875 -5.140625 L 1.8125 -1.171875 C 1.820312 -0.992188 1.835938 -0.851562 1.859375 -0.75 C 1.878906 -0.65625 1.929688 -0.570312 2.015625 -0.5 C 2.109375 -0.4375 2.25 -0.40625 2.4375 -0.40625 L 2.5 -0.40625 C 2.570312 -0.40625 2.617188 -0.390625 2.640625 -0.359375 C 2.671875 -0.335938 2.691406 -0.28125 2.703125 -0.1875 C 2.703125 -0.125 2.6875 -0.0703125 2.65625 -0.03125 C 2.625 0.0078125 2.582031 0.03125 2.53125 0.03125 C 2.101562 0.0078125 1.773438 0 1.546875 0 C 1.421875 0 1.1875 0.00390625 0.84375 0.015625 Z M 0.625 0.03125 "/></g></g><g style="fill:#38b6ff;fill-opacity:1;"><g transform="translate(130.179454, 248.957943)"><path style="stroke:none" d="M 1.109375 0.125 C 0.921875 0.125 0.765625 0.0664062 0.640625 -0.046875 C 0.523438 -0.171875 0.46875 -0.328125 0.46875 -0.515625 C 0.46875 -0.679688 0.523438 -0.820312 0.640625 -0.9375 C 0.765625 -1.0625 0.921875 -1.125 1.109375 -1.125 C 1.285156 -1.125 1.4375 -1.0625 1.5625 -0.9375 C 1.6875 -0.820312 1.75 -0.679688 1.75 -0.515625 C 1.75 -0.328125 1.6875 -0.171875 1.5625 -0.046875 C 1.4375 0.0664062 1.285156 0.125 1.109375 0.125 Z M 1.109375 0.125 "/></g></g><g style="fill:#38b6ff;fill-opacity:1;"><g transform="translate(134.465083, 248.957943)"><path style="stroke:none" d=""/></g></g><g style="fill:#38b6ff;fill-opacity:1;"><g transform="translate(138.760725, 248.957943)"><path style="stroke:none" d="M 0.59375 0.03125 C 0.539062 0.03125 0.5 0.0078125 0.46875 -0.03125 C 0.445312 -0.0703125 0.4375 -0.125 0.4375 -0.1875 C 0.4375 -0.289062 0.453125 -0.351562 0.484375 -0.375 C 0.523438 -0.394531 0.59375 -0.40625 0.6875 -0.40625 C 0.875 -0.40625 1.015625 -0.4375 1.109375 -0.5 C 1.203125 -0.570312 1.257812 -0.660156 1.28125 -0.765625 C 1.3125 -0.867188 1.328125 -1.003906 1.328125 -1.171875 L 1.328125 -5.140625 C 1.328125 -5.316406 1.3125 -5.453125 1.28125 -5.546875 C 1.257812 -5.648438 1.203125 -5.738281 1.109375 -5.8125 C 1.015625 -5.882812 0.875 -5.921875 0.6875 -5.921875 L 0.625 -5.921875 C 0.550781 -5.921875 0.5 -5.929688 0.46875 -5.953125 C 0.445312 -5.972656 0.4375 -6.03125 0.4375 -6.125 C 0.4375 -6.1875 0.445312 -6.238281 0.46875 -6.28125 C 0.5 -6.320312 0.539062 -6.34375 0.59375 -6.34375 C 1.039062 -6.320312 1.441406 -6.3125 1.796875 -6.3125 L 3.359375 -6.3125 C 3.992188 -6.3125 4.570312 -6.179688 5.09375 -5.921875 C 5.625 -5.671875 6.039062 -5.304688 6.34375 -4.828125 C 6.644531 -4.347656 6.796875 -3.78125 6.796875 -3.125 C 6.796875 -2.445312 6.625 -1.867188 6.28125 -1.390625 C 5.9375 -0.921875 5.488281 -0.570312 4.9375 -0.34375 C 4.382812 -0.113281 3.796875 0 3.171875 0 L 1.796875 0 C 1.441406 0 1.039062 0.0078125 0.59375 0.03125 Z M 3.328125 -0.375 C 4.109375 -0.375 4.679688 -0.613281 5.046875 -1.09375 C 5.410156 -1.582031 5.59375 -2.257812 5.59375 -3.125 C 5.59375 -3.675781 5.492188 -4.164062 5.296875 -4.59375 C 5.097656 -5.019531 4.8125 -5.351562 4.4375 -5.59375 C 4.0625 -5.832031 3.617188 -5.953125 3.109375 -5.953125 L 2.328125 -5.953125 L 2.328125 -1.046875 C 2.328125 -0.785156 2.40625 -0.609375 2.5625 -0.515625 C 2.71875 -0.421875 2.972656 -0.375 3.328125 -0.375 Z M 3.328125 -0.375 "/></g></g><g style="fill:#38b6ff;fill-opacity:1;"><g transform="translate(148.11033, 248.957943)"><path style="stroke:none" d="M 0.59375 0.03125 C 0.539062 0.03125 0.5 0.0078125 0.46875 -0.03125 C 0.445312 -0.0703125 0.4375 -0.125 0.4375 -0.1875 C 0.4375 -0.289062 0.453125 -0.351562 0.484375 -0.375 C 0.523438 -0.394531 0.59375 -0.40625 0.6875 -0.40625 C 0.875 -0.40625 1.015625 -0.4375 1.109375 -0.5 C 1.203125 -0.570312 1.257812 -0.660156 1.28125 -0.765625 C 1.3125 -0.867188 1.328125 -1.003906 1.328125 -1.171875 L 1.328125 -5.140625 C 1.328125 -5.316406 1.3125 -5.453125 1.28125 -5.546875 C 1.257812 -5.648438 1.203125 -5.738281 1.109375 -5.8125 C 1.015625 -5.882812 0.875 -5.921875 0.6875 -5.921875 L 0.625 -5.921875 C 0.550781 -5.921875 0.5 -5.929688 0.46875 -5.953125 C 0.445312 -5.972656 0.4375 -6.03125 0.4375 -6.125 C 0.4375 -6.1875 0.445312 -6.238281 0.46875 -6.28125 C 0.5 -6.320312 0.539062 -6.34375 0.59375 -6.34375 C 1.039062 -6.320312 1.441406 -6.3125 1.796875 -6.3125 L 4.9375 -6.3125 C 5.113281 -6.3125 5.203125 -6.234375 5.203125 -6.078125 L 5.234375 -4.671875 C 5.234375 -4.617188 5.203125 -4.570312 5.140625 -4.53125 C 5.078125 -4.5 5.015625 -4.484375 4.953125 -4.484375 C 4.878906 -4.484375 4.8125 -4.492188 4.75 -4.515625 C 4.6875 -4.546875 4.648438 -4.59375 4.640625 -4.65625 C 4.585938 -4.976562 4.53125 -5.222656 4.46875 -5.390625 C 4.40625 -5.566406 4.3125 -5.695312 4.1875 -5.78125 C 4.0625 -5.863281 3.890625 -5.910156 3.671875 -5.921875 L 2.328125 -5.921875 L 2.328125 -3.375 L 4.140625 -3.375 C 4.179688 -3.363281 4.210938 -3.335938 4.234375 -3.296875 C 4.265625 -3.253906 4.28125 -3.203125 4.28125 -3.140625 C 4.28125 -3.085938 4.265625 -3.039062 4.234375 -3 C 4.210938 -2.957031 4.179688 -2.9375 4.140625 -2.9375 L 2.328125 -2.9375 L 2.328125 -1.046875 C 2.335938 -0.910156 2.351562 -0.800781 2.375 -0.71875 C 2.394531 -0.632812 2.453125 -0.554688 2.546875 -0.484375 C 2.648438 -0.421875 2.8125 -0.394531 3.03125 -0.40625 L 3.953125 -0.40625 C 4.179688 -0.40625 4.351562 -0.441406 4.46875 -0.515625 C 4.59375 -0.585938 4.691406 -0.695312 4.765625 -0.84375 C 4.835938 -0.988281 4.921875 -1.226562 5.015625 -1.5625 C 5.066406 -1.6875 5.179688 -1.734375 5.359375 -1.703125 C 5.421875 -1.691406 5.476562 -1.664062 5.53125 -1.625 C 5.582031 -1.582031 5.601562 -1.53125 5.59375 -1.46875 L 5.40625 -0.203125 C 5.382812 -0.117188 5.351562 -0.0625 5.3125 -0.03125 C 5.269531 -0.0078125 5.203125 0 5.109375 0 L 1.796875 0 C 1.441406 0 1.039062 0.0078125 0.59375 0.03125 Z M 0.59375 0.03125 "/></g></g><g style="fill:#38b6ff;fill-opacity:1;"><g transform="translate(156.118882, 248.957943)"><path style="stroke:none" d="M 3.046875 0.09375 C 2.847656 -0.445312 2.53125 -1.316406 2.09375 -2.515625 C 1.65625 -3.710938 1.335938 -4.578125 1.140625 -5.109375 C 1.023438 -5.390625 0.914062 -5.585938 0.8125 -5.703125 C 0.707031 -5.816406 0.550781 -5.894531 0.34375 -5.9375 C 0.3125 -5.945312 0.269531 -5.957031 0.21875 -5.96875 C 0.164062 -5.976562 0.128906 -5.992188 0.109375 -6.015625 C 0.0976562 -6.046875 0.09375 -6.097656 0.09375 -6.171875 C 0.09375 -6.253906 0.113281 -6.304688 0.15625 -6.328125 C 0.195312 -6.359375 0.265625 -6.375 0.359375 -6.375 C 0.859375 -6.375 1.238281 -6.296875 1.5 -6.140625 C 1.757812 -5.984375 1.96875 -5.707031 2.125 -5.3125 L 3.578125 -1.40625 L 3.609375 -1.40625 L 4.984375 -5.421875 C 5.023438 -5.535156 5.046875 -5.625 5.046875 -5.6875 C 5.046875 -5.78125 5.003906 -5.84375 4.921875 -5.875 C 4.847656 -5.90625 4.722656 -5.921875 4.546875 -5.921875 L 4.484375 -5.921875 C 4.421875 -5.921875 4.375 -5.929688 4.34375 -5.953125 C 4.320312 -5.972656 4.304688 -6.03125 4.296875 -6.125 C 4.296875 -6.1875 4.3125 -6.238281 4.34375 -6.28125 C 4.375 -6.320312 4.414062 -6.34375 4.46875 -6.34375 C 4.90625 -6.320312 5.269531 -6.3125 5.5625 -6.3125 C 5.6875 -6.3125 5.929688 -6.320312 6.296875 -6.34375 L 6.5 -6.34375 C 6.5625 -6.34375 6.609375 -6.320312 6.640625 -6.28125 C 6.671875 -6.238281 6.6875 -6.1875 6.6875 -6.125 C 6.675781 -6.03125 6.65625 -5.972656 6.625 -5.953125 C 6.601562 -5.929688 6.554688 -5.921875 6.484375 -5.921875 C 6.203125 -5.921875 5.984375 -5.875 5.828125 -5.78125 C 5.679688 -5.6875 5.554688 -5.503906 5.453125 -5.234375 C 5.242188 -4.691406 4.914062 -3.804688 4.46875 -2.578125 C 4.03125 -1.347656 3.710938 -0.457031 3.515625 0.09375 Z M 3.046875 0.09375 "/></g></g><g style="fill:#38b6ff;fill-opacity:1;"><g transform="translate(164.667859, 248.957943)"><path style="stroke:none" d="M 0.59375 0.03125 C 0.539062 0.03125 0.5 0.0078125 0.46875 -0.03125 C 0.445312 -0.0703125 0.4375 -0.125 0.4375 -0.1875 C 0.4375 -0.289062 0.453125 -0.351562 0.484375 -0.375 C 0.523438 -0.394531 0.59375 -0.40625 0.6875 -0.40625 C 0.875 -0.40625 1.015625 -0.4375 1.109375 -0.5 C 1.203125 -0.570312 1.257812 -0.660156 1.28125 -0.765625 C 1.3125 -0.867188 1.328125 -1.003906 1.328125 -1.171875 L 1.328125 -5.140625 C 1.328125 -5.316406 1.3125 -5.453125 1.28125 -5.546875 C 1.257812 -5.648438 1.203125 -5.738281 1.109375 -5.8125 C 1.015625 -5.882812 0.875 -5.921875 0.6875 -5.921875 L 0.625 -5.921875 C 0.550781 -5.921875 0.5 -5.929688 0.46875 -5.953125 C 0.445312 -5.972656 0.4375 -6.03125 0.4375 -6.125 C 0.4375 -6.1875 0.445312 -6.238281 0.46875 -6.28125 C 0.5 -6.320312 0.539062 -6.34375 0.59375 -6.34375 C 1.039062 -6.320312 1.441406 -6.3125 1.796875 -6.3125 L 4.9375 -6.3125 C 5.113281 -6.3125 5.203125 -6.234375 5.203125 -6.078125 L 5.234375 -4.671875 C 5.234375 -4.617188 5.203125 -4.570312 5.140625 -4.53125 C 5.078125 -4.5 5.015625 -4.484375 4.953125 -4.484375 C 4.878906 -4.484375 4.8125 -4.492188 4.75 -4.515625 C 4.6875 -4.546875 4.648438 -4.59375 4.640625 -4.65625 C 4.585938 -4.976562 4.53125 -5.222656 4.46875 -5.390625 C 4.40625 -5.566406 4.3125 -5.695312 4.1875 -5.78125 C 4.0625 -5.863281 3.890625 -5.910156 3.671875 -5.921875 L 2.328125 -5.921875 L 2.328125 -3.375 L 4.140625 -3.375 C 4.179688 -3.363281 4.210938 -3.335938 4.234375 -3.296875 C 4.265625 -3.253906 4.28125 -3.203125 4.28125 -3.140625 C 4.28125 -3.085938 4.265625 -3.039062 4.234375 -3 C 4.210938 -2.957031 4.179688 -2.9375 4.140625 -2.9375 L 2.328125 -2.9375 L 2.328125 -1.046875 C 2.335938 -0.910156 2.351562 -0.800781 2.375 -0.71875 C 2.394531 -0.632812 2.453125 -0.554688 2.546875 -0.484375 C 2.648438 -0.421875 2.8125 -0.394531 3.03125 -0.40625 L 3.953125 -0.40625 C 4.179688 -0.40625 4.351562 -0.441406 4.46875 -0.515625 C 4.59375 -0.585938 4.691406 -0.695312 4.765625 -0.84375 C 4.835938 -0.988281 4.921875 -1.226562 5.015625 -1.5625 C 5.066406 -1.6875 5.179688 -1.734375 5.359375 -1.703125 C 5.421875 -1.691406 5.476562 -1.664062 5.53125 -1.625 C 5.582031 -1.582031 5.601562 -1.53125 5.59375 -1.46875 L 5.40625 -0.203125 C 5.382812 -0.117188 5.351562 -0.0625 5.3125 -0.03125 C 5.269531 -0.0078125 5.203125 0 5.109375 0 L 1.796875 0 C 1.441406 0 1.039062 0.0078125 0.59375 0.03125 Z M 0.59375 0.03125 "/></g></g><g style="fill:#38b6ff;fill-opacity:1;"><g transform="translate(172.676411, 248.957943)"><path style="stroke:none" d="M 0.59375 0.03125 C 0.539062 0.03125 0.5 0.0078125 0.46875 -0.03125 C 0.445312 -0.0703125 0.4375 -0.125 0.4375 -0.1875 C 0.4375 -0.289062 0.453125 -0.351562 0.484375 -0.375 C 0.523438 -0.394531 0.59375 -0.40625 0.6875 -0.40625 C 0.875 -0.40625 1.015625 -0.4375 1.109375 -0.5 C 1.203125 -0.570312 1.257812 -0.660156 1.28125 -0.765625 C 1.3125 -0.867188 1.328125 -1.003906 1.328125 -1.171875 L 1.328125 -5.140625 C 1.328125 -5.316406 1.3125 -5.453125 1.28125 -5.546875 C 1.257812 -5.648438 1.203125 -5.738281 1.109375 -5.8125 C 1.015625 -5.882812 0.875 -5.921875 0.6875 -5.921875 L 0.625 -5.921875 C 0.550781 -5.921875 0.5 -5.929688 0.46875 -5.953125 C 0.445312 -5.972656 0.4375 -6.03125 0.4375 -6.125 C 0.4375 -6.1875 0.445312 -6.238281 0.46875 -6.28125 C 0.5 -6.320312 0.539062 -6.34375 0.59375 -6.34375 C 1.039062 -6.320312 1.441406 -6.3125 1.796875 -6.3125 C 2.191406 -6.3125 2.609375 -6.320312 3.046875 -6.34375 C 3.109375 -6.34375 3.148438 -6.320312 3.171875 -6.28125 C 3.203125 -6.238281 3.21875 -6.1875 3.21875 -6.125 C 3.21875 -6.03125 3.195312 -5.972656 3.15625 -5.953125 C 3.125 -5.929688 3.0625 -5.921875 2.96875 -5.921875 C 2.78125 -5.921875 2.640625 -5.882812 2.546875 -5.8125 C 2.453125 -5.738281 2.390625 -5.648438 2.359375 -5.546875 C 2.335938 -5.453125 2.328125 -5.316406 2.328125 -5.140625 L 2.328125 -1.015625 C 2.335938 -0.878906 2.351562 -0.769531 2.375 -0.6875 C 2.394531 -0.613281 2.453125 -0.546875 2.546875 -0.484375 C 2.648438 -0.421875 2.8125 -0.394531 3.03125 -0.40625 L 3.921875 -0.40625 C 4.160156 -0.40625 4.335938 -0.441406 4.453125 -0.515625 C 4.578125 -0.585938 4.671875 -0.695312 4.734375 -0.84375 C 4.804688 -0.988281 4.894531 -1.226562 5 -1.5625 C 5.039062 -1.6875 5.15625 -1.734375 5.34375 -1.703125 C 5.394531 -1.691406 5.445312 -1.664062 5.5 -1.625 C 5.5625 -1.582031 5.585938 -1.53125 5.578125 -1.46875 L 5.375 -0.203125 C 5.351562 -0.117188 5.320312 -0.0625 5.28125 -0.03125 C 5.25 -0.0078125 5.1875 0 5.09375 0 L 1.796875 0 C 1.441406 0 1.039062 0.0078125 0.59375 0.03125 Z M 0.59375 0.03125 "/></g></g><g style="fill:#38b6ff;fill-opacity:1;"><g transform="translate(180.454788, 248.957943)"><path style="stroke:none" d="M 3.671875 0.203125 C 3.035156 0.203125 2.472656 0.0507812 1.984375 -0.25 C 1.503906 -0.5625 1.128906 -0.96875 0.859375 -1.46875 C 0.597656 -1.96875 0.46875 -2.503906 0.46875 -3.078125 C 0.46875 -3.773438 0.625 -4.382812 0.9375 -4.90625 C 1.257812 -5.425781 1.664062 -5.820312 2.15625 -6.09375 C 2.65625 -6.375 3.160156 -6.515625 3.671875 -6.515625 C 4.304688 -6.515625 4.867188 -6.363281 5.359375 -6.0625 C 5.847656 -5.757812 6.222656 -5.359375 6.484375 -4.859375 C 6.753906 -4.359375 6.890625 -3.820312 6.890625 -3.25 C 6.890625 -2.550781 6.726562 -1.9375 6.40625 -1.40625 C 6.082031 -0.882812 5.671875 -0.484375 5.171875 -0.203125 C 4.671875 0.0664062 4.171875 0.203125 3.671875 0.203125 Z M 3.65625 -0.234375 C 4.113281 -0.234375 4.492188 -0.367188 4.796875 -0.640625 C 5.097656 -0.910156 5.320312 -1.273438 5.46875 -1.734375 C 5.625 -2.191406 5.703125 -2.695312 5.703125 -3.25 C 5.703125 -3.769531 5.625 -4.242188 5.46875 -4.671875 C 5.3125 -5.097656 5.078125 -5.441406 4.765625 -5.703125 C 4.460938 -5.960938 4.09375 -6.09375 3.65625 -6.09375 C 2.988281 -6.09375 2.484375 -5.804688 2.140625 -5.234375 C 1.804688 -4.671875 1.640625 -3.960938 1.640625 -3.109375 C 1.640625 -2.585938 1.710938 -2.109375 1.859375 -1.671875 C 2.015625 -1.234375 2.242188 -0.882812 2.546875 -0.625 C 2.847656 -0.363281 3.21875 -0.234375 3.65625 -0.234375 Z M 3.65625 -0.234375 "/></g></g><g style="fill:#38b6ff;fill-opacity:1;"><g transform="translate(189.874454, 248.957943)"><path style="stroke:none" d="M 0.59375 0.03125 C 0.539062 0.03125 0.5 0.0078125 0.46875 -0.03125 C 0.4375 -0.0703125 0.421875 -0.125 0.421875 -0.1875 C 0.429688 -0.289062 0.453125 -0.351562 0.484375 -0.375 C 0.523438 -0.394531 0.59375 -0.40625 0.6875 -0.40625 C 0.875 -0.40625 1.015625 -0.4375 1.109375 -0.5 C 1.203125 -0.570312 1.257812 -0.660156 1.28125 -0.765625 C 1.3125 -0.867188 1.328125 -1.003906 1.328125 -1.171875 L 1.328125 -5.140625 C 1.328125 -5.316406 1.3125 -5.453125 1.28125 -5.546875 C 1.257812 -5.648438 1.203125 -5.738281 1.109375 -5.8125 C 1.015625 -5.882812 0.875 -5.921875 0.6875 -5.921875 L 0.625 -5.921875 C 0.550781 -5.921875 0.5 -5.929688 0.46875 -5.953125 C 0.445312 -5.972656 0.429688 -6.03125 0.421875 -6.125 C 0.421875 -6.1875 0.4375 -6.238281 0.46875 -6.28125 C 0.5 -6.320312 0.539062 -6.34375 0.59375 -6.34375 C 1.03125 -6.320312 1.429688 -6.3125 1.796875 -6.3125 L 3.3125 -6.3125 C 3.882812 -6.3125 4.441406 -6.191406 4.984375 -5.953125 C 5.535156 -5.710938 5.8125 -5.234375 5.8125 -4.515625 C 5.8125 -4.117188 5.691406 -3.757812 5.453125 -3.4375 C 5.210938 -3.125 4.898438 -2.878906 4.515625 -2.703125 C 4.128906 -2.535156 3.726562 -2.453125 3.3125 -2.453125 C 2.9375 -2.453125 2.601562 -2.503906 2.3125 -2.609375 L 2.3125 -1.171875 C 2.320312 -1.003906 2.335938 -0.867188 2.359375 -0.765625 C 2.378906 -0.660156 2.4375 -0.570312 2.53125 -0.5 C 2.625 -0.4375 2.769531 -0.40625 2.96875 -0.40625 L 3.03125 -0.40625 C 3.09375 -0.40625 3.140625 -0.390625 3.171875 -0.359375 C 3.203125 -0.335938 3.21875 -0.28125 3.21875 -0.1875 C 3.21875 -0.125 3.203125 -0.0703125 3.171875 -0.03125 C 3.148438 0.0078125 3.109375 0.03125 3.046875 0.03125 C 2.617188 0.0078125 2.203125 0 1.796875 0 C 1.429688 0 1.03125 0.0078125 0.59375 0.03125 Z M 3.03125 -2.90625 C 3.269531 -2.90625 3.515625 -2.953125 3.765625 -3.046875 C 4.023438 -3.140625 4.242188 -3.304688 4.421875 -3.546875 C 4.609375 -3.785156 4.703125 -4.097656 4.703125 -4.484375 C 4.703125 -5.078125 4.515625 -5.46875 4.140625 -5.65625 C 3.765625 -5.851562 3.363281 -5.953125 2.9375 -5.953125 C 2.769531 -5.953125 2.640625 -5.929688 2.546875 -5.890625 C 2.460938 -5.859375 2.398438 -5.785156 2.359375 -5.671875 C 2.328125 -5.566406 2.3125 -5.398438 2.3125 -5.171875 L 2.3125 -3.015625 C 2.46875 -2.941406 2.707031 -2.90625 3.03125 -2.90625 Z M 3.03125 -2.90625 "/></g></g><g style="fill:#38b6ff;fill-opacity:1;"><g transform="translate(197.983084, 248.957943)"><path style="stroke:none" d="M 1.109375 0.125 C 0.921875 0.125 0.765625 0.0664062 0.640625 -0.046875 C 0.523438 -0.171875 0.46875 -0.328125 0.46875 -0.515625 C 0.46875 -0.679688 0.523438 -0.820312 0.640625 -0.9375 C 0.765625 -1.0625 0.921875 -1.125 1.109375 -1.125 C 1.285156 -1.125 1.4375 -1.0625 1.5625 -0.9375 C 1.6875 -0.820312 1.75 -0.679688 1.75 -0.515625 C 1.75 -0.328125 1.6875 -0.171875 1.5625 -0.046875 C 1.4375 0.0664062 1.285156 0.125 1.109375 0.125 Z M 1.109375 0.125 "/></g></g><g style="fill:#38b6ff;fill-opacity:1;"><g transform="translate(202.268713, 248.957943)"><path style="stroke:none" d=""/></g></g><g style="fill:#38b6ff;fill-opacity:1;"><g transform="translate(206.564356, 248.957943)"><path style="stroke:none" d="M 0.59375 0.03125 C 0.539062 0.03125 0.5 0.0078125 0.46875 -0.03125 C 0.445312 -0.0703125 0.4375 -0.125 0.4375 -0.1875 C 0.4375 -0.289062 0.453125 -0.351562 0.484375 -0.375 C 0.523438 -0.394531 0.59375 -0.40625 0.6875 -0.40625 C 0.875 -0.40625 1.015625 -0.4375 1.109375 -0.5 C 1.203125 -0.570312 1.257812 -0.660156 1.28125 -0.765625 C 1.3125 -0.867188 1.328125 -1.003906 1.328125 -1.171875 L 1.328125 -5.140625 C 1.328125 -5.316406 1.3125 -5.453125 1.28125 -5.546875 C 1.257812 -5.648438 1.203125 -5.738281 1.109375 -5.8125 C 1.015625 -5.882812 0.875 -5.921875 0.6875 -5.921875 L 0.625 -5.921875 C 0.550781 -5.921875 0.5 -5.929688 0.46875 -5.953125 C 0.445312 -5.972656 0.4375 -6.03125 0.4375 -6.125 C 0.4375 -6.1875 0.445312 -6.238281 0.46875 -6.28125 C 0.5 -6.320312 0.539062 -6.34375 0.59375 -6.34375 C 1.039062 -6.320312 1.441406 -6.3125 1.796875 -6.3125 L 3.359375 -6.3125 C 3.992188 -6.3125 4.570312 -6.179688 5.09375 -5.921875 C 5.625 -5.671875 6.039062 -5.304688 6.34375 -4.828125 C 6.644531 -4.347656 6.796875 -3.78125 6.796875 -3.125 C 6.796875 -2.445312 6.625 -1.867188 6.28125 -1.390625 C 5.9375 -0.921875 5.488281 -0.570312 4.9375 -0.34375 C 4.382812 -0.113281 3.796875 0 3.171875 0 L 1.796875 0 C 1.441406 0 1.039062 0.0078125 0.59375 0.03125 Z M 3.328125 -0.375 C 4.109375 -0.375 4.679688 -0.613281 5.046875 -1.09375 C 5.410156 -1.582031 5.59375 -2.257812 5.59375 -3.125 C 5.59375 -3.675781 5.492188 -4.164062 5.296875 -4.59375 C 5.097656 -5.019531 4.8125 -5.351562 4.4375 -5.59375 C 4.0625 -5.832031 3.617188 -5.953125 3.109375 -5.953125 L 2.328125 -5.953125 L 2.328125 -1.046875 C 2.328125 -0.785156 2.40625 -0.609375 2.5625 -0.515625 C 2.71875 -0.421875 2.972656 -0.375 3.328125 -0.375 Z M 3.328125 -0.375 "/></g></g><g style="fill:#38b6ff;fill-opacity:1;"><g transform="translate(215.913961, 248.957943)"><path style="stroke:none" d="M 3.671875 0.203125 C 3.035156 0.203125 2.472656 0.0507812 1.984375 -0.25 C 1.503906 -0.5625 1.128906 -0.96875 0.859375 -1.46875 C 0.597656 -1.96875 0.46875 -2.503906 0.46875 -3.078125 C 0.46875 -3.773438 0.625 -4.382812 0.9375 -4.90625 C 1.257812 -5.425781 1.664062 -5.820312 2.15625 -6.09375 C 2.65625 -6.375 3.160156 -6.515625 3.671875 -6.515625 C 4.304688 -6.515625 4.867188 -6.363281 5.359375 -6.0625 C 5.847656 -5.757812 6.222656 -5.359375 6.484375 -4.859375 C 6.753906 -4.359375 6.890625 -3.820312 6.890625 -3.25 C 6.890625 -2.550781 6.726562 -1.9375 6.40625 -1.40625 C 6.082031 -0.882812 5.671875 -0.484375 5.171875 -0.203125 C 4.671875 0.0664062 4.171875 0.203125 3.671875 0.203125 Z M 3.65625 -0.234375 C 4.113281 -0.234375 4.492188 -0.367188 4.796875 -0.640625 C 5.097656 -0.910156 5.320312 -1.273438 5.46875 -1.734375 C 5.625 -2.191406 5.703125 -2.695312 5.703125 -3.25 C 5.703125 -3.769531 5.625 -4.242188 5.46875 -4.671875 C 5.3125 -5.097656 5.078125 -5.441406 4.765625 -5.703125 C 4.460938 -5.960938 4.09375 -6.09375 3.65625 -6.09375 C 2.988281 -6.09375 2.484375 -5.804688 2.140625 -5.234375 C 1.804688 -4.671875 1.640625 -3.960938 1.640625 -3.109375 C 1.640625 -2.585938 1.710938 -2.109375 1.859375 -1.671875 C 2.015625 -1.234375 2.242188 -0.882812 2.546875 -0.625 C 2.847656 -0.363281 3.21875 -0.234375 3.65625 -0.234375 Z M 3.65625 -0.234375 "/></g></g><g style="fill:#38b6ff;fill-opacity:1;"><g transform="translate(225.333626, 248.957943)"><path style="stroke:none" d="M 4.28125 0.046875 C 4.1875 0.046875 4.117188 0.015625 4.078125 -0.046875 L 1.828125 -5.140625 L 1.796875 -5.140625 L 1.8125 -1.171875 C 1.820312 -0.992188 1.835938 -0.851562 1.859375 -0.75 C 1.878906 -0.65625 1.929688 -0.570312 2.015625 -0.5 C 2.109375 -0.4375 2.25 -0.40625 2.4375 -0.40625 L 2.5 -0.40625 C 2.570312 -0.40625 2.617188 -0.390625 2.640625 -0.359375 C 2.671875 -0.335938 2.691406 -0.28125 2.703125 -0.1875 C 2.703125 -0.125 2.6875 -0.0703125 2.65625 -0.03125 C 2.625 0.0078125 2.582031 0.03125 2.53125 0.03125 L 2.28125 0.015625 C 1.96875 0.00390625 1.742188 0 1.609375 0 C 1.378906 0 1.050781 0.0078125 0.625 0.03125 C 0.5625 0.03125 0.515625 0.0078125 0.484375 -0.03125 C 0.453125 -0.0703125 0.4375 -0.125 0.4375 -0.1875 C 0.445312 -0.289062 0.46875 -0.351562 0.5 -0.375 C 0.53125 -0.394531 0.59375 -0.40625 0.6875 -0.40625 C 0.882812 -0.40625 1.023438 -0.4375 1.109375 -0.5 C 1.203125 -0.570312 1.257812 -0.65625 1.28125 -0.75 C 1.300781 -0.851562 1.316406 -0.992188 1.328125 -1.171875 L 1.34375 -5.140625 C 1.34375 -5.347656 1.316406 -5.503906 1.265625 -5.609375 C 1.222656 -5.710938 1.15625 -5.785156 1.0625 -5.828125 C 0.976562 -5.878906 0.847656 -5.921875 0.671875 -5.953125 C 0.640625 -5.953125 0.597656 -5.957031 0.546875 -5.96875 C 0.492188 -5.976562 0.457031 -6 0.4375 -6.03125 C 0.425781 -6.0625 0.421875 -6.113281 0.421875 -6.1875 C 0.421875 -6.257812 0.441406 -6.304688 0.484375 -6.328125 C 0.523438 -6.359375 0.59375 -6.375 0.6875 -6.375 C 1.082031 -6.375 1.40625 -6.347656 1.65625 -6.296875 C 1.914062 -6.253906 2.140625 -6.15625 2.328125 -6 C 2.515625 -5.84375 2.671875 -5.613281 2.796875 -5.3125 L 4.53125 -1.453125 L 4.5625 -1.453125 L 6.53125 -6.3125 L 7.09375 -6.3125 C 7.46875 -6.3125 7.867188 -6.320312 8.296875 -6.34375 C 8.359375 -6.34375 8.398438 -6.320312 8.421875 -6.28125 C 8.453125 -6.238281 8.46875 -6.1875 8.46875 -6.125 C 8.46875 -6.03125 8.445312 -5.972656 8.40625 -5.953125 C 8.375 -5.929688 8.3125 -5.921875 8.21875 -5.921875 C 8.03125 -5.921875 7.890625 -5.882812 7.796875 -5.8125 C 7.703125 -5.738281 7.640625 -5.648438 7.609375 -5.546875 C 7.585938 -5.453125 7.578125 -5.316406 7.578125 -5.140625 L 7.578125 -1.171875 C 7.578125 -1.003906 7.585938 -0.867188 7.609375 -0.765625 C 7.640625 -0.660156 7.703125 -0.570312 7.796875 -0.5 C 7.890625 -0.4375 8.03125 -0.40625 8.21875 -0.40625 L 8.28125 -0.40625 C 8.34375 -0.40625 8.390625 -0.390625 8.421875 -0.359375 C 8.453125 -0.335938 8.46875 -0.28125 8.46875 -0.1875 C 8.46875 -0.125 8.453125 -0.0703125 8.421875 -0.03125 C 8.398438 0.0078125 8.359375 0.03125 8.296875 0.03125 C 7.867188 0.0078125 7.46875 0 7.09375 0 C 6.707031 0 6.296875 0.0078125 5.859375 0.03125 C 5.796875 0.03125 5.75 0.0078125 5.71875 -0.03125 C 5.6875 -0.0703125 5.671875 -0.125 5.671875 -0.1875 C 5.679688 -0.289062 5.703125 -0.351562 5.734375 -0.375 C 5.773438 -0.394531 5.835938 -0.40625 5.921875 -0.40625 C 6.117188 -0.40625 6.265625 -0.4375 6.359375 -0.5 C 6.453125 -0.570312 6.507812 -0.660156 6.53125 -0.765625 C 6.5625 -0.867188 6.578125 -1.003906 6.578125 -1.171875 L 6.578125 -5.140625 L 6.546875 -5.140625 L 4.484375 -0.046875 C 4.460938 0.015625 4.394531 0.046875 4.28125 0.046875 Z M 4.28125 0.046875 "/></g></g><g style="fill:#38b6ff;fill-opacity:1;"><g transform="translate(236.294502, 248.957943)"><path style="stroke:none" d="M 0.59375 0.03125 C 0.539062 0.03125 0.5 0.0078125 0.46875 -0.03125 C 0.4375 -0.0703125 0.421875 -0.125 0.421875 -0.1875 C 0.429688 -0.289062 0.453125 -0.351562 0.484375 -0.375 C 0.523438 -0.394531 0.585938 -0.40625 0.671875 -0.40625 C 0.867188 -0.40625 1.007812 -0.4375 1.09375 -0.5 C 1.1875 -0.570312 1.25 -0.65625 1.28125 -0.75 C 1.3125 -0.851562 1.328125 -0.992188 1.328125 -1.171875 L 1.328125 -5.140625 C 1.328125 -5.316406 1.3125 -5.453125 1.28125 -5.546875 C 1.25 -5.648438 1.1875 -5.738281 1.09375 -5.8125 C 1.007812 -5.882812 0.867188 -5.921875 0.671875 -5.921875 L 0.609375 -5.921875 C 0.546875 -5.921875 0.5 -5.929688 0.46875 -5.953125 C 0.445312 -5.972656 0.429688 -6.03125 0.421875 -6.125 C 0.421875 -6.1875 0.4375 -6.238281 0.46875 -6.28125 C 0.5 -6.320312 0.539062 -6.34375 0.59375 -6.34375 C 1.03125 -6.320312 1.429688 -6.3125 1.796875 -6.3125 C 2.191406 -6.3125 2.609375 -6.320312 3.046875 -6.34375 C 3.109375 -6.34375 3.148438 -6.320312 3.171875 -6.28125 C 3.203125 -6.238281 3.21875 -6.1875 3.21875 -6.125 C 3.21875 -6.03125 3.195312 -5.972656 3.15625 -5.953125 C 3.125 -5.929688 3.0625 -5.921875 2.96875 -5.921875 C 2.769531 -5.921875 2.625 -5.882812 2.53125 -5.8125 C 2.4375 -5.738281 2.378906 -5.648438 2.359375 -5.546875 C 2.335938 -5.453125 2.320312 -5.316406 2.3125 -5.140625 L 2.3125 -1.171875 C 2.320312 -1.003906 2.335938 -0.867188 2.359375 -0.765625 C 2.378906 -0.660156 2.4375 -0.570312 2.53125 -0.5 C 2.625 -0.4375 2.769531 -0.40625 2.96875 -0.40625 L 3.03125 -0.40625 C 3.09375 -0.40625 3.140625 -0.390625 3.171875 -0.359375 C 3.203125 -0.335938 3.21875 -0.28125 3.21875 -0.1875 C 3.21875 -0.125 3.203125 -0.0703125 3.171875 -0.03125 C 3.148438 0.0078125 3.109375 0.03125 3.046875 0.03125 C 2.617188 0.0078125 2.203125 0 1.796875 0 C 1.429688 0 1.03125 0.0078125 0.59375 0.03125 Z M 0.59375 0.03125 "/></g></g><g style="fill:#38b6ff;fill-opacity:1;"><g transform="translate(242.001247, 248.957943)"><path style="stroke:none" d="M 0.625 0.03125 C 0.5625 0.03125 0.515625 0.0078125 0.484375 -0.03125 C 0.453125 -0.0703125 0.4375 -0.125 0.4375 -0.1875 C 0.445312 -0.289062 0.46875 -0.351562 0.5 -0.375 C 0.53125 -0.394531 0.59375 -0.40625 0.6875 -0.40625 C 0.882812 -0.40625 1.023438 -0.4375 1.109375 -0.5 C 1.203125 -0.570312 1.257812 -0.65625 1.28125 -0.75 C 1.300781 -0.851562 1.316406 -0.992188 1.328125 -1.171875 L 1.34375 -5.140625 C 1.34375 -5.347656 1.320312 -5.503906 1.28125 -5.609375 C 1.238281 -5.710938 1.171875 -5.785156 1.078125 -5.828125 C 0.984375 -5.878906 0.847656 -5.921875 0.671875 -5.953125 C 0.554688 -5.972656 0.484375 -5.992188 0.453125 -6.015625 C 0.429688 -6.035156 0.421875 -6.09375 0.421875 -6.1875 C 0.421875 -6.257812 0.441406 -6.304688 0.484375 -6.328125 C 0.523438 -6.359375 0.59375 -6.375 0.6875 -6.375 C 1.101562 -6.375 1.429688 -6.34375 1.671875 -6.28125 C 1.910156 -6.226562 2.117188 -6.128906 2.296875 -5.984375 C 2.484375 -5.835938 2.691406 -5.613281 2.921875 -5.3125 L 5.65625 -1.71875 L 5.6875 -1.71875 L 5.671875 -5.140625 C 5.660156 -5.328125 5.644531 -5.46875 5.625 -5.5625 C 5.601562 -5.65625 5.546875 -5.738281 5.453125 -5.8125 C 5.367188 -5.882812 5.226562 -5.921875 5.03125 -5.921875 L 4.984375 -5.921875 C 4.910156 -5.921875 4.859375 -5.929688 4.828125 -5.953125 C 4.796875 -5.972656 4.78125 -6.03125 4.78125 -6.125 C 4.78125 -6.1875 4.796875 -6.238281 4.828125 -6.28125 C 4.859375 -6.320312 4.898438 -6.34375 4.953125 -6.34375 C 5.378906 -6.320312 5.703125 -6.3125 5.921875 -6.3125 C 6.046875 -6.3125 6.289062 -6.320312 6.65625 -6.34375 L 6.859375 -6.34375 C 6.921875 -6.34375 6.96875 -6.320312 7 -6.28125 C 7.03125 -6.238281 7.046875 -6.1875 7.046875 -6.125 C 7.035156 -6.03125 7.015625 -5.972656 6.984375 -5.953125 C 6.953125 -5.929688 6.890625 -5.921875 6.796875 -5.921875 C 6.597656 -5.921875 6.453125 -5.882812 6.359375 -5.8125 C 6.273438 -5.738281 6.222656 -5.65625 6.203125 -5.5625 C 6.179688 -5.46875 6.164062 -5.328125 6.15625 -5.140625 L 6.140625 -0.09375 C 6.128906 -0.0078125 6.046875 0.03125 5.890625 0.03125 C 5.765625 0.03125 5.664062 -0.0078125 5.59375 -0.09375 L 1.828125 -5.140625 L 1.796875 -5.140625 L 1.8125 -1.171875 C 1.820312 -0.992188 1.835938 -0.851562 1.859375 -0.75 C 1.878906 -0.65625 1.929688 -0.570312 2.015625 -0.5 C 2.109375 -0.4375 2.25 -0.40625 2.4375 -0.40625 L 2.5 -0.40625 C 2.570312 -0.40625 2.617188 -0.390625 2.640625 -0.359375 C 2.671875 -0.335938 2.691406 -0.28125 2.703125 -0.1875 C 2.703125 -0.125 2.6875 -0.0703125 2.65625 -0.03125 C 2.625 0.0078125 2.582031 0.03125 2.53125 0.03125 C 2.101562 0.0078125 1.773438 0 1.546875 0 C 1.421875 0 1.1875 0.00390625 0.84375 0.015625 Z M 0.625 0.03125 "/></g></g><g style="fill:#38b6ff;fill-opacity:1;"><g transform="translate(251.440928, 248.957943)"><path style="stroke:none" d="M 0.0625 0.03125 C 0 0.03125 -0.046875 0.0078125 -0.078125 -0.03125 C -0.109375 -0.0703125 -0.125 -0.125 -0.125 -0.1875 C -0.113281 -0.289062 -0.09375 -0.351562 -0.0625 -0.375 C -0.03125 -0.394531 0.00390625 -0.40625 0.046875 -0.40625 C 0.0976562 -0.40625 0.132812 -0.40625 0.15625 -0.40625 C 0.351562 -0.40625 0.5 -0.457031 0.59375 -0.5625 C 0.6875 -0.664062 0.757812 -0.78125 0.8125 -0.90625 C 0.875 -1.039062 0.914062 -1.128906 0.9375 -1.171875 L 2.6875 -5.3125 C 2.726562 -5.414062 2.75 -5.5 2.75 -5.5625 C 2.75 -5.675781 2.703125 -5.757812 2.609375 -5.8125 C 2.515625 -5.875 2.382812 -5.921875 2.21875 -5.953125 C 2.101562 -5.972656 2.03125 -5.992188 2 -6.015625 C 1.976562 -6.035156 1.96875 -6.09375 1.96875 -6.1875 C 1.96875 -6.257812 1.988281 -6.304688 2.03125 -6.328125 C 2.070312 -6.359375 2.140625 -6.375 2.234375 -6.375 C 2.566406 -6.375 2.832031 -6.347656 3.03125 -6.296875 C 3.226562 -6.253906 3.398438 -6.15625 3.546875 -6 C 3.691406 -5.851562 3.828125 -5.625 3.953125 -5.3125 L 5.640625 -1.171875 C 5.742188 -0.921875 5.835938 -0.726562 5.921875 -0.59375 C 6.015625 -0.46875 6.15625 -0.40625 6.34375 -0.40625 L 6.40625 -0.40625 C 6.476562 -0.40625 6.523438 -0.390625 6.546875 -0.359375 C 6.578125 -0.335938 6.59375 -0.28125 6.59375 -0.1875 C 6.59375 -0.125 6.578125 -0.0703125 6.546875 -0.03125 C 6.523438 0.0078125 6.484375 0.03125 6.421875 0.03125 C 5.992188 0.0078125 5.625 0 5.3125 0 C 4.914062 0 4.503906 0.0078125 4.078125 0.03125 C 4.015625 0.03125 3.96875 0.0078125 3.9375 -0.03125 C 3.90625 -0.0703125 3.890625 -0.125 3.890625 -0.1875 C 3.898438 -0.28125 3.914062 -0.335938 3.9375 -0.359375 C 3.96875 -0.390625 4.019531 -0.40625 4.09375 -0.40625 C 4.3125 -0.40625 4.46875 -0.425781 4.5625 -0.46875 C 4.65625 -0.507812 4.703125 -0.585938 4.703125 -0.703125 C 4.703125 -0.785156 4.664062 -0.941406 4.59375 -1.171875 L 4.25 -2 L 1.765625 -2 C 1.597656 -1.582031 1.503906 -1.34375 1.484375 -1.28125 C 1.460938 -1.21875 1.453125 -1.179688 1.453125 -1.171875 C 1.367188 -0.921875 1.328125 -0.757812 1.328125 -0.6875 C 1.328125 -0.570312 1.375 -0.492188 1.46875 -0.453125 C 1.570312 -0.421875 1.765625 -0.40625 2.046875 -0.40625 L 2.109375 -0.40625 C 2.179688 -0.40625 2.226562 -0.390625 2.25 -0.359375 C 2.28125 -0.335938 2.296875 -0.28125 2.296875 -0.1875 C 2.296875 -0.125 2.28125 -0.0703125 2.25 -0.03125 C 2.226562 0.0078125 2.1875 0.03125 2.125 0.03125 C 1.695312 0.0078125 1.332031 0 1.03125 0 C 0.820312 0 0.5 0.0078125 0.0625 0.03125 Z M 1.96875 -2.4375 L 4.0625 -2.4375 L 3.0625 -5.015625 L 3.03125 -5.015625 Z M 1.96875 -2.4375 "/></g></g><g style="fill:#38b6ff;fill-opacity:1;"><g transform="translate(260.03995, 248.957943)"><path style="stroke:none" d="M 1.796875 0.03125 C 1.734375 0.03125 1.6875 0.0078125 1.65625 -0.03125 C 1.625 -0.0703125 1.609375 -0.125 1.609375 -0.1875 C 1.617188 -0.289062 1.640625 -0.351562 1.671875 -0.375 C 1.703125 -0.394531 1.765625 -0.40625 1.859375 -0.40625 C 2.054688 -0.40625 2.203125 -0.4375 2.296875 -0.5 C 2.390625 -0.570312 2.445312 -0.660156 2.46875 -0.765625 C 2.488281 -0.867188 2.503906 -1.003906 2.515625 -1.171875 L 2.515625 -5.953125 L 1.828125 -5.953125 C 1.597656 -5.941406 1.421875 -5.890625 1.296875 -5.796875 C 1.171875 -5.710938 1.078125 -5.582031 1.015625 -5.40625 C 0.953125 -5.226562 0.894531 -4.972656 0.84375 -4.640625 C 0.84375 -4.585938 0.804688 -4.546875 0.734375 -4.515625 C 0.660156 -4.484375 0.582031 -4.46875 0.5 -4.46875 C 0.4375 -4.46875 0.378906 -4.484375 0.328125 -4.515625 C 0.285156 -4.554688 0.265625 -4.609375 0.265625 -4.671875 L 0.296875 -6.078125 C 0.296875 -6.234375 0.382812 -6.3125 0.5625 -6.3125 L 5.453125 -6.3125 C 5.628906 -6.3125 5.71875 -6.234375 5.71875 -6.078125 L 5.765625 -4.671875 C 5.765625 -4.609375 5.734375 -4.554688 5.671875 -4.515625 C 5.617188 -4.484375 5.566406 -4.46875 5.515625 -4.46875 C 5.429688 -4.46875 5.351562 -4.484375 5.28125 -4.515625 C 5.207031 -4.546875 5.171875 -4.585938 5.171875 -4.640625 C 5.117188 -4.972656 5.0625 -5.226562 5 -5.40625 C 4.9375 -5.582031 4.84375 -5.710938 4.71875 -5.796875 C 4.59375 -5.890625 4.414062 -5.941406 4.1875 -5.953125 L 3.5 -5.953125 L 3.5 -1.171875 C 3.507812 -1.003906 3.523438 -0.867188 3.546875 -0.765625 C 3.566406 -0.660156 3.625 -0.570312 3.71875 -0.5 C 3.8125 -0.4375 3.957031 -0.40625 4.15625 -0.40625 L 4.21875 -0.40625 C 4.28125 -0.40625 4.320312 -0.390625 4.34375 -0.359375 C 4.375 -0.335938 4.394531 -0.28125 4.40625 -0.1875 C 4.40625 -0.125 4.390625 -0.0703125 4.359375 -0.03125 C 4.328125 0.0078125 4.285156 0.03125 4.234375 0.03125 C 3.796875 0.0078125 3.398438 0 3.046875 0 C 2.640625 0 2.222656 0.0078125 1.796875 0.03125 Z M 1.796875 0.03125 "/></g></g><g style="fill:#38b6ff;fill-opacity:1;"><g transform="translate(268.108549, 248.957943)"><path style="stroke:none" d="M 0.59375 0.03125 C 0.539062 0.03125 0.5 0.0078125 0.46875 -0.03125 C 0.445312 -0.0703125 0.4375 -0.125 0.4375 -0.1875 C 0.4375 -0.289062 0.453125 -0.351562 0.484375 -0.375 C 0.523438 -0.394531 0.59375 -0.40625 0.6875 -0.40625 C 0.875 -0.40625 1.015625 -0.4375 1.109375 -0.5 C 1.203125 -0.570312 1.257812 -0.660156 1.28125 -0.765625 C 1.3125 -0.867188 1.328125 -1.003906 1.328125 -1.171875 L 1.328125 -5.140625 C 1.328125 -5.316406 1.3125 -5.453125 1.28125 -5.546875 C 1.257812 -5.648438 1.203125 -5.738281 1.109375 -5.8125 C 1.015625 -5.882812 0.875 -5.921875 0.6875 -5.921875 L 0.625 -5.921875 C 0.550781 -5.921875 0.5 -5.929688 0.46875 -5.953125 C 0.445312 -5.972656 0.4375 -6.03125 0.4375 -6.125 C 0.4375 -6.1875 0.445312 -6.238281 0.46875 -6.28125 C 0.5 -6.320312 0.539062 -6.34375 0.59375 -6.34375 C 1.039062 -6.320312 1.441406 -6.3125 1.796875 -6.3125 L 4.9375 -6.3125 C 5.113281 -6.3125 5.203125 -6.234375 5.203125 -6.078125 L 5.234375 -4.671875 C 5.234375 -4.617188 5.203125 -4.570312 5.140625 -4.53125 C 5.078125 -4.5 5.015625 -4.484375 4.953125 -4.484375 C 4.878906 -4.484375 4.8125 -4.492188 4.75 -4.515625 C 4.6875 -4.546875 4.648438 -4.59375 4.640625 -4.65625 C 4.585938 -4.976562 4.53125 -5.222656 4.46875 -5.390625 C 4.40625 -5.566406 4.3125 -5.695312 4.1875 -5.78125 C 4.0625 -5.863281 3.890625 -5.910156 3.671875 -5.921875 L 2.328125 -5.921875 L 2.328125 -3.375 L 4.140625 -3.375 C 4.179688 -3.363281 4.210938 -3.335938 4.234375 -3.296875 C 4.265625 -3.253906 4.28125 -3.203125 4.28125 -3.140625 C 4.28125 -3.085938 4.265625 -3.039062 4.234375 -3 C 4.210938 -2.957031 4.179688 -2.9375 4.140625 -2.9375 L 2.328125 -2.9375 L 2.328125 -1.046875 C 2.335938 -0.910156 2.351562 -0.800781 2.375 -0.71875 C 2.394531 -0.632812 2.453125 -0.554688 2.546875 -0.484375 C 2.648438 -0.421875 2.8125 -0.394531 3.03125 -0.40625 L 3.953125 -0.40625 C 4.179688 -0.40625 4.351562 -0.441406 4.46875 -0.515625 C 4.59375 -0.585938 4.691406 -0.695312 4.765625 -0.84375 C 4.835938 -0.988281 4.921875 -1.226562 5.015625 -1.5625 C 5.066406 -1.6875 5.179688 -1.734375 5.359375 -1.703125 C 5.421875 -1.691406 5.476562 -1.664062 5.53125 -1.625 C 5.582031 -1.582031 5.601562 -1.53125 5.59375 -1.46875 L 5.40625 -0.203125 C 5.382812 -0.117188 5.351562 -0.0625 5.3125 -0.03125 C 5.269531 -0.0078125 5.203125 0 5.109375 0 L 1.796875 0 C 1.441406 0 1.039062 0.0078125 0.59375 0.03125 Z M 0.59375 0.03125 "/></g></g><g style="fill:#38b6ff;fill-opacity:1;"><g transform="translate(276.117101, 248.957943)"><path style="stroke:none" d="M 1.109375 0.125 C 0.921875 0.125 0.765625 0.0664062 0.640625 -0.046875 C 0.523438 -0.171875 0.46875 -0.328125 0.46875 -0.515625 C 0.46875 -0.679688 0.523438 -0.820312 0.640625 -0.9375 C 0.765625 -1.0625 0.921875 -1.125 1.109375 -1.125 C 1.285156 -1.125 1.4375 -1.0625 1.5625 -0.9375 C 1.6875 -0.820312 1.75 -0.679688 1.75 -0.515625 C 1.75 -0.328125 1.6875 -0.171875 1.5625 -0.046875 C 1.4375 0.0664062 1.285156 0.125 1.109375 0.125 Z M 1.109375 0.125 "/></g></g><path style="fill:none;stroke-width:4;stroke-linecap:butt;stroke-linejoin:miter;stroke:#ffffff;stroke-opacity:1;stroke-miterlimit:4;" d="M -0.00000271667 1.998784 L 43.661458 1.998784 " transform="matrix(0.75,0,0,0.75,37.500002,245.207943)"/><path style="fill:none;stroke-width:4;stroke-linecap:butt;stroke-linejoin:miter;stroke:#ffffff;stroke-opacity:1;stroke-miterlimit:4;" d="M 0.001906 1.998784 L 43.663367 1.998784 " transform="matrix(0.75,0,0,0.75,283.994664,246.707943)"/></g></svg>